<svg width="50" height="50" viewBox="0 0 50 50" fill="none" xmlns="http://www.w3.org/2000/svg">
<g clip-path="url(#clip0_178_11172)">
<path d="M12.4575 3.91484H16.9757C17.3228 3.91484 17.6041 3.63353 17.6041 3.2864C17.6041 2.93927 17.3228 2.65796 16.9757 2.65796H12.4575C12.1104 2.65796 11.8291 2.93927 11.8291 3.2864C11.8291 3.63353 12.1104 3.91484 12.4575 3.91484Z" fill="white"/>
<path d="M14.7163 43.8506C13.5869 43.8506 12.668 44.7695 12.668 45.8991C12.668 47.0287 13.5869 47.9475 14.7163 47.9475C15.8458 47.9475 16.7647 47.0286 16.7647 45.8991C16.7647 44.7696 15.8458 43.8506 14.7163 43.8506ZM14.7163 46.6906C14.2799 46.6906 13.9249 46.3356 13.9249 45.8991C13.9249 45.4626 14.2799 45.1075 14.7163 45.1075C15.1528 45.1075 15.5078 45.4626 15.5078 45.8991C15.5078 46.3356 15.1527 46.6906 14.7163 46.6906Z" fill="white"/>
<path d="M6.84231 14.7583H14.7814C15.1285 14.7583 15.4098 14.477 15.4098 14.1299C15.4098 13.7828 15.1285 13.5015 14.7814 13.5015H6.84231C6.49518 13.5015 6.21387 13.7828 6.21387 14.1299C6.21387 14.477 6.49518 14.7583 6.84231 14.7583Z" fill="white"/>
<path d="M6.84231 26.1185H14.7814C15.1285 26.1185 15.4098 25.8371 15.4098 25.49C15.4098 25.1429 15.1285 24.8616 14.7814 24.8616H6.84231C6.49518 24.8616 6.21387 25.1429 6.21387 25.49C6.21387 25.8371 6.49518 26.1185 6.84231 26.1185Z" fill="white"/>
<path d="M18.1377 27.1851H6.84231C6.49518 27.1851 6.21387 27.4664 6.21387 27.8135C6.21387 28.1606 6.49518 28.4419 6.84231 28.4419H18.1377C18.4848 28.4419 18.7661 28.1606 18.7661 27.8135C18.7661 27.4664 18.4847 27.1851 18.1377 27.1851Z" fill="white"/>
<path d="M48.6075 24.9688C48.9547 24.9688 49.236 24.6875 49.236 24.3404V8.23716C49.236 7.89003 48.9547 7.60872 48.6075 7.60872H28.6688V2.61775C28.6688 1.17427 27.4945 0 26.051 0H3.38142C1.93794 0 0.763672 1.17427 0.763672 2.61775V47.3823C0.763672 48.8256 1.93794 50 3.38142 50H26.051C27.4945 50 28.6688 48.8257 28.6688 47.3823V38.0323H48.6075C48.9547 38.0323 49.236 37.751 49.236 37.4039V27.9143C49.236 27.5671 48.9547 27.2858 48.6075 27.2858H28.6688V24.9688H48.6075ZM47.9791 23.7119H20.4926V8.8656H47.9791V23.7119ZM19.8642 27.2859C19.5171 27.2859 19.2358 27.5672 19.2358 27.9144V31.3318H4.95252V20.9443H19.2358V22.5379H6.84185C6.49472 22.5379 6.21341 22.8192 6.21341 23.1663C6.21341 23.5134 6.49472 23.7948 6.84185 23.7948H19.2358V24.3405C19.2358 24.6876 19.5171 24.9689 19.8642 24.9689H24.4799V27.2859H19.8642ZM19.8642 38.0324H24.4799V39.0915H4.95252V34.8444H19.2358V37.404C19.2358 37.751 19.5171 38.0324 19.8642 38.0324ZM19.2358 11.1779H6.84185C6.49472 11.1779 6.21341 11.4592 6.21341 11.8064C6.21341 12.1535 6.49472 12.4348 6.84185 12.4348H19.2358V17.4935H4.95252V9.69858H19.2358V11.1779ZM3.38142 1.25688H26.051C26.8014 1.25688 27.4119 1.86739 27.4119 2.61775V5.93844H2.02056V2.61775C2.02056 1.86739 2.63106 1.25688 3.38142 1.25688ZM26.051 48.7431H3.38142C2.63106 48.7431 2.02056 48.1326 2.02056 47.3823V43.0291H27.4119V47.3823C27.4119 48.1326 26.8014 48.7431 26.051 48.7431ZM27.4119 41.7723H2.02056V7.19532H27.4119V7.60872H19.8642C19.5171 7.60872 19.2358 7.89003 19.2358 8.23716V8.44169H4.32408C3.97695 8.44169 3.69564 8.72301 3.69564 9.07013V18.122C3.69564 18.4691 3.97695 18.7504 4.32408 18.7504H19.2358V19.6874H4.32408C3.97695 19.6874 3.69564 19.9687 3.69564 20.3158V31.9603C3.69564 32.3074 3.97695 32.5887 4.32408 32.5887H19.2358V33.5874H4.32408C3.97695 33.5874 3.69564 33.8687 3.69564 34.2158V39.7198C3.69564 40.067 3.97695 40.3483 4.32408 40.3483H25.1084C25.4555 40.3483 25.7368 40.067 25.7368 39.7198V38.0323H27.4119V41.7723ZM47.9791 36.7755H20.4926V28.5428H47.9791V36.7755ZM27.4119 27.2859H25.7368V24.9689H27.4119V27.2859Z" fill="white"/>
<path d="M23.3452 12.8072H45.1259C45.473 12.8072 45.7543 12.5259 45.7543 12.1787C45.7543 11.8316 45.473 11.5503 45.1259 11.5503H23.3452C22.9981 11.5503 22.7168 11.8316 22.7168 12.1787C22.7168 12.5259 22.9982 12.8072 23.3452 12.8072Z" fill="white"/>
<path d="M23.3452 16.0208H34.3248C34.6719 16.0208 34.9532 15.7395 34.9532 15.3924C34.9532 15.0452 34.6719 14.7639 34.3248 14.7639H23.3452C22.9981 14.7639 22.7168 15.0452 22.7168 15.3924C22.7168 15.7395 22.9982 16.0208 23.3452 16.0208Z" fill="white"/>
<path d="M23.3452 31.4754H45.1259C45.473 31.4754 45.7543 31.1941 45.7543 30.8469C45.7543 30.4998 45.473 30.2185 45.1259 30.2185H23.3452C22.9981 30.2185 22.7168 30.4998 22.7168 30.8469C22.7168 31.1941 22.9982 31.4754 23.3452 31.4754Z" fill="white"/>
<path d="M23.3452 34.6888H34.3248C34.6719 34.6888 34.9532 34.4075 34.9532 34.0603C34.9532 33.7132 34.6719 33.4319 34.3248 33.4319H23.3452C22.9981 33.4319 22.7168 33.7132 22.7168 34.0603C22.7168 34.4075 22.9982 34.6888 23.3452 34.6888Z" fill="white"/>
<path d="M23.3452 19.2342H38.9666C39.3137 19.2342 39.595 18.9529 39.595 18.6057C39.595 18.2586 39.3137 17.9773 38.9666 17.9773H23.3452C22.9981 17.9773 22.7168 18.2586 22.7168 18.6057C22.7168 18.9529 22.9982 19.2342 23.3452 19.2342Z" fill="white"/>
<path d="M13.3613 36.3506H6.84231C6.49518 36.3506 6.21387 36.6319 6.21387 36.979C6.21387 37.3262 6.49518 37.6075 6.84231 37.6075H13.3613C13.7084 37.6075 13.9898 37.3262 13.9898 36.979C13.9898 36.6319 13.7083 36.3506 13.3613 36.3506Z" fill="white"/>
</g>
<defs>
<clipPath id="clip0_178_11172">
<rect width="50" height="50" fill="white"/>
</clipPath>
</defs>
</svg>
