<svg width="50" height="50" viewBox="0 0 50 50" fill="none" xmlns="http://www.w3.org/2000/svg">
<path d="M46.7737 8.06445H3.22559V14.516H46.7737V8.06445Z" fill="white"/>
<path d="M47.5804 4.83862H2.41942C1.08541 4.83862 0 5.92421 0 7.25805V37.0966C0 38.4305 1.08541 39.5161 2.41942 39.5161H16.1289V43.5484H12.0968V45.1613H29.0322H37.9032H47.5806C48.9144 45.1613 50 44.0759 50 42.7418V18.5483V16.9354V7.25805C49.9997 5.92421 48.9142 4.83862 47.5804 4.83862ZM2.41942 6.45152H47.5804C48.0255 6.45152 48.3869 6.81366 48.3869 7.25805V14.6644C48.1337 14.5741 47.8643 14.5161 47.5804 14.5161H46.7739H29.0321H3.22578V30.6451H26.6128V32.258H1.61289V7.25805C1.61289 6.81366 1.97418 6.45152 2.41942 6.45152ZM26.6128 17.7418H24.9999V19.3547H26.6128V21.7741H24.9999V23.387H26.6128V25.8062H24.9999V27.4191H26.6128V29.032H4.83868V16.1289H26.7611C26.6708 16.3821 26.6126 16.6514 26.6126 16.9354V17.7418H26.6128ZM1.61289 37.0965V33.8707H26.6128V37.903H2.41942C1.97418 37.903 1.61289 37.5408 1.61289 37.0965ZM17.7418 39.5159H26.6128V42.7417C26.6128 43.0255 26.6708 43.295 26.7613 43.5482H17.742V39.5159H17.7418ZM48.3868 42.7417C48.3868 43.1861 48.0255 43.5482 47.5802 43.5482H38.7094H37.9029H29.0321C28.587 43.5482 28.2255 43.1861 28.2255 42.7417V39.5159V37.903V33.8707V32.2578V30.6449V29.032V27.4191V25.8062V23.3868V21.7739V19.3547V17.7418V16.9352C28.2255 16.4908 28.5868 16.1287 29.0321 16.1287H45.161V17.7416H29.8384V41.9351H38.7094H46.7739V19.7894V17.7418V16.1289H47.5804C48.0255 16.1289 48.3869 16.491 48.3869 16.9354V18.5483L48.3868 42.7417ZM45.161 19.7894V40.3222H31.4513V19.3547H45.161V19.7894Z" fill="white"/>
<path d="M7.2577 12.0967C7.70314 12.0967 8.06424 11.7356 8.06424 11.2902C8.06424 10.8447 7.70314 10.4836 7.2577 10.4836C6.81227 10.4836 6.45117 10.8447 6.45117 11.2902C6.45117 11.7356 6.81227 12.0967 7.2577 12.0967Z" fill="white"/>
<path d="M9.67763 12.0967C10.1231 12.0967 10.4842 11.7356 10.4842 11.2902C10.4842 10.8447 10.1231 10.4836 9.67763 10.4836C9.23219 10.4836 8.87109 10.8447 8.87109 11.2902C8.87109 11.7356 9.23219 12.0967 9.67763 12.0967Z" fill="white"/>
<path d="M12.0966 12.0967C12.542 12.0967 12.9031 11.7356 12.9031 11.2902C12.9031 10.8447 12.542 10.4836 12.0966 10.4836C11.6511 10.4836 11.29 10.8447 11.29 11.2902C11.29 11.7356 11.6511 12.0967 12.0966 12.0967Z" fill="white"/>
<path d="M6.45117 27.4191H23.3866V17.7417H6.45117V27.4191ZM8.06406 19.3546H21.7737V25.8062H8.06406V19.3546Z" fill="white"/>
<path d="M38.7099 43.5481C39.1553 43.5481 39.5164 43.187 39.5164 42.7416C39.5164 42.2962 39.1553 41.9351 38.7099 41.9351C38.2644 41.9351 37.9033 42.2962 37.9033 42.7416C37.9033 43.187 38.2644 43.5481 38.7099 43.5481Z" fill="white"/>
<path d="M43.5483 20.9675H33.0645V29.032H43.5483V20.9675ZM41.9354 27.4191H34.6773V22.5804H41.9354V27.4191Z" fill="white"/>
<path d="M43.5483 30.6448H33.0645V32.2577H43.5483V30.6448Z" fill="white"/>
<path d="M43.5483 33.8706H33.0645V35.4835H43.5483V33.8706Z" fill="white"/>
<path d="M43.5483 37.0964H33.0645V38.7093H43.5483V37.0964Z" fill="white"/>
</svg>
