<svg width="50" height="50" viewBox="0 0 50 50" fill="none" xmlns="http://www.w3.org/2000/svg">
<g clip-path="url(#clip0_178_10590)">
<path d="M28.125 44.5312H21.875V46.0938H28.125V44.5312Z" fill="white"/>
<path d="M45.3125 8.59375H40.625V4.6875C40.625 2.53359 38.8727 0.78125 36.7188 0.78125H13.2812C11.1273 0.78125 9.375 2.53359 9.375 4.6875V24.2188H4.6875C2.53359 24.2188 0.78125 25.9711 0.78125 28.125V44.3789L8.03672 39.8438H9.375V45.3125C9.375 47.4664 11.1273 49.2188 13.2812 49.2188H36.7188C38.8727 49.2188 40.625 47.4664 40.625 45.3125V24.2188H41.9633L49.2188 28.7539V12.5C49.2188 10.3461 47.4664 8.59375 45.3125 8.59375ZM13.2812 2.34375H36.7188C38.0109 2.34375 39.0625 3.39531 39.0625 4.6875V5.46875H10.9375V4.6875C10.9375 3.39531 11.9891 2.34375 13.2812 2.34375ZM7.58828 38.2812L2.34375 41.5586V28.125C2.34375 26.8328 3.39531 25.7812 4.6875 25.7812H21.875C23.1672 25.7812 24.2188 26.8328 24.2188 28.125V35.9375C24.2188 37.2297 23.1672 38.2812 21.875 38.2812H7.58828ZM36.7188 47.6562H13.2812C11.9891 47.6562 10.9375 46.6047 10.9375 45.3125V42.9688H39.0625V45.3125C39.0625 46.6047 38.0109 47.6562 36.7188 47.6562ZM39.0625 41.4062H10.9375V39.8438H21.875C24.0289 39.8438 25.7812 38.0914 25.7812 35.9375V28.125C25.7812 25.9711 24.0289 24.2188 21.875 24.2188H10.9375V7.03125H39.0625V8.59375H28.125C25.9711 8.59375 24.2188 10.3461 24.2188 12.5V20.3125C24.2188 22.4664 25.9711 24.2188 28.125 24.2188H39.0625V41.4062ZM47.6562 25.9336L42.4117 22.6562H40.625H39.0625H28.125C26.8328 22.6562 25.7812 21.6047 25.7812 20.3125V12.5C25.7812 11.2078 26.8328 10.1562 28.125 10.1562H45.3125C46.6047 10.1562 47.6562 11.2078 47.6562 12.5V25.9336Z" fill="white"/>
<path d="M36.7188 14.0625C35.4266 14.0625 34.375 15.1141 34.375 16.4062C34.375 17.6984 35.4266 18.75 36.7188 18.75C38.0109 18.75 39.0625 17.6984 39.0625 16.4062C39.0625 15.1141 38.0109 14.0625 36.7188 14.0625ZM36.7188 17.1875C36.2883 17.1875 35.9375 16.8367 35.9375 16.4062C35.9375 15.9758 36.2883 15.625 36.7188 15.625C37.1492 15.625 37.5 15.9758 37.5 16.4062C37.5 16.8367 37.1492 17.1875 36.7188 17.1875Z" fill="white"/>
<path d="M42.9688 14.0625C41.6766 14.0625 40.625 15.1141 40.625 16.4062C40.625 17.6984 41.6766 18.75 42.9688 18.75C44.2609 18.75 45.3125 17.6984 45.3125 16.4062C45.3125 15.1141 44.2609 14.0625 42.9688 14.0625ZM42.9688 17.1875C42.5383 17.1875 42.1875 16.8367 42.1875 16.4062C42.1875 15.9758 42.5383 15.625 42.9688 15.625C43.3992 15.625 43.75 15.9758 43.75 16.4062C43.75 16.8367 43.3992 17.1875 42.9688 17.1875Z" fill="white"/>
<path d="M30.4688 14.0625C29.1766 14.0625 28.125 15.1141 28.125 16.4062C28.125 17.6984 29.1766 18.75 30.4688 18.75C31.7609 18.75 32.8125 17.6984 32.8125 16.4062C32.8125 15.1141 31.7609 14.0625 30.4688 14.0625ZM30.4688 17.1875C30.0383 17.1875 29.6875 16.8367 29.6875 16.4062C29.6875 15.9758 30.0383 15.625 30.4688 15.625C30.8992 15.625 31.25 15.9758 31.25 16.4062C31.25 16.8367 30.8992 17.1875 30.4688 17.1875Z" fill="white"/>
<path d="M17.9688 32.175V32.0312C17.9688 29.4461 15.8664 27.3438 13.2812 27.3438C10.6961 27.3438 8.59375 29.4461 8.59375 32.0312V32.175C7.68672 32.4984 7.03125 33.3578 7.03125 34.375C7.03125 35.6672 8.08281 36.7188 9.375 36.7188H11.7188V32.0312H10.1562C10.1562 30.3078 11.5578 28.9062 13.2812 28.9062C15.0047 28.9062 16.4062 30.3078 16.4062 32.0312H14.8438V36.7188H17.1875C18.4797 36.7188 19.5312 35.6672 19.5312 34.375C19.5312 33.3578 18.8758 32.4984 17.9688 32.175ZM10.1562 35.1562H9.375C8.94453 35.1562 8.59375 34.8063 8.59375 34.375C8.59375 33.9437 8.94453 33.5938 9.375 33.5938H10.1562V35.1562ZM17.1875 35.1562H16.4062V33.5938H17.1875C17.618 33.5938 17.9688 33.9437 17.9688 34.375C17.9688 34.8063 17.618 35.1562 17.1875 35.1562Z" fill="white"/>
<path d="M28.9062 31.25H27.3438V32.8125H28.9062V31.25Z" fill="white"/>
<path d="M32.0312 31.25H30.4688V32.8125H32.0312V31.25Z" fill="white"/>
<path d="M35.1562 31.25H33.5938V32.8125H35.1562V31.25Z" fill="white"/>
<path d="M16.4062 15.625H14.8438V17.1875H16.4062V15.625Z" fill="white"/>
<path d="M19.5312 15.625H17.9688V17.1875H19.5312V15.625Z" fill="white"/>
<path d="M22.6562 15.625H21.0938V17.1875H22.6562V15.625Z" fill="white"/>
</g>
<defs>
<clipPath id="clip0_178_10590">
<rect width="50" height="50" fill="white"/>
</clipPath>
</defs>
</svg>
