<svg width="50" height="50" viewBox="0 0 50 50" fill="none" xmlns="http://www.w3.org/2000/svg">
<path d="M49.1339 15.7043H37.9911V7.33237C37.9911 6.85407 37.6033 6.46631 37.1251 6.46631H0.866059C0.387763 6.46631 0 6.85407 0 7.33237V33.4296C0 33.9079 0.387763 34.2957 0.866059 34.2957H12.0089V42.6676C12.0089 43.1459 12.3967 43.5336 12.8749 43.5336H49.1339C49.6122 43.5336 50 43.1459 50 42.6676V16.5703C50 16.092 49.6122 15.7043 49.1339 15.7043ZM48.2679 20.8192H13.741V17.4364H48.2679V20.8192ZM36.259 8.19843V11.5813H1.73212V8.19843H36.259ZM1.73212 32.5635V13.3134H36.259V15.7043H12.8749C12.3967 15.7043 12.0089 16.092 12.0089 16.5703V32.5635H1.73212V32.5635ZM13.741 22.5513H24.2055V41.8015H13.741V22.5513V22.5513ZM25.9377 41.8015V22.5513H48.2679V41.8015H25.9377Z" fill="white"/>
<path d="M15.534 19.9941C15.7627 19.9941 15.9855 19.9017 16.1472 19.74C16.3077 19.5795 16.4001 19.3555 16.4001 19.128C16.4001 18.8994 16.3077 18.6765 16.1472 18.516C15.9855 18.3543 15.7627 18.262 15.534 18.262C15.3065 18.262 15.0825 18.3543 14.922 18.516C14.7603 18.6765 14.668 18.8994 14.668 19.128C14.668 19.3555 14.7603 19.5795 14.922 19.74C15.0836 19.9017 15.3064 19.9941 15.534 19.9941Z" fill="white"/>
<path d="M17.6774 19.9941C17.906 19.9941 18.1289 19.9017 18.2906 19.74C18.4511 19.5795 18.5435 19.3555 18.5435 19.128C18.5435 18.9005 18.4511 18.6765 18.2906 18.5149C18.1289 18.3543 17.906 18.262 17.6774 18.262C17.4499 18.262 17.2271 18.3543 17.0654 18.5149C16.9049 18.6765 16.8125 18.9005 16.8125 19.128C16.8125 19.3555 16.9049 19.5795 17.0654 19.74C17.2271 19.9017 17.4499 19.9941 17.6774 19.9941Z" fill="white"/>
<path d="M19.8231 19.9941C20.0506 19.9941 20.2734 19.9017 20.4351 19.74C20.5968 19.5795 20.6891 19.3555 20.6891 19.128C20.6891 18.8994 20.5968 18.6765 20.4351 18.5149C20.2734 18.3543 20.0506 18.262 19.8231 18.262C19.5945 18.262 19.3716 18.3543 19.2099 18.5149C19.0494 18.6765 18.957 18.9005 18.957 19.128C18.957 19.3555 19.0494 19.5795 19.2099 19.74C19.3716 19.9017 19.5945 19.9941 19.8231 19.9941Z" fill="white"/>
<path d="M16.202 26.0629H21.7448C22.2231 26.0629 22.6108 25.6752 22.6108 25.1969C22.6108 24.7186 22.2231 24.3308 21.7448 24.3308H16.202C15.7237 24.3308 15.3359 24.7186 15.3359 25.1969C15.3359 25.6752 15.7237 26.0629 16.202 26.0629Z" fill="white"/>
<path d="M21.7448 27.4485H16.202C15.7237 27.4485 15.3359 27.8362 15.3359 28.3145C15.3359 28.7928 15.7237 29.1806 16.202 29.1806H21.7448C22.2231 29.1806 22.6108 28.7928 22.6108 28.3145C22.6108 27.8362 22.2231 27.4485 21.7448 27.4485Z" fill="white"/>
<path d="M21.7448 30.5664H16.202C15.7237 30.5664 15.3359 30.9542 15.3359 31.4325C15.3359 31.9108 15.7237 32.2985 16.202 32.2985H21.7448C22.2231 32.2985 22.6108 31.9108 22.6108 31.4325C22.6108 30.9542 22.2231 30.5664 21.7448 30.5664Z" fill="white"/>
<path d="M41.224 24.3308H28.2108C27.7325 24.3308 27.3447 24.7186 27.3447 25.1969C27.3447 25.6752 27.7325 26.0629 28.2108 26.0629H41.224C41.7022 26.0629 42.09 25.6752 42.09 25.1969C42.09 24.7186 41.7022 24.3308 41.224 24.3308Z" fill="white"/>
<path d="M41.224 27.4485H28.2108C27.7325 27.4485 27.3447 27.8362 27.3447 28.3145C27.3447 28.7928 27.7325 29.1806 28.2108 29.1806H41.224C41.7022 29.1806 42.09 28.7928 42.09 28.3145C42.09 27.8362 41.7022 27.4485 41.224 27.4485Z" fill="white"/>
<path d="M41.224 30.5664H28.2108C27.7325 30.5664 27.3447 30.9542 27.3447 31.4325C27.3447 31.9108 27.7325 32.2985 28.2108 32.2985H41.224C41.7022 32.2985 42.09 31.9108 42.09 31.4325C42.09 30.9542 41.7022 30.5664 41.224 30.5664Z" fill="white"/>
<path d="M3.52426 10.756C3.7529 10.756 3.97577 10.6637 4.13743 10.502C4.29794 10.3403 4.39032 10.1175 4.39032 9.88998C4.39032 9.6625 4.29794 9.43848 4.13743 9.27797C3.97577 9.11631 3.7529 9.02393 3.52426 9.02393C3.29678 9.02393 3.07391 9.11631 2.91225 9.27797C2.75058 9.43848 2.6582 9.66135 2.6582 9.88998C2.6582 10.1175 2.75058 10.3415 2.91225 10.502C3.0738 10.6637 3.29666 10.756 3.52426 10.756Z" fill="white"/>
<path d="M5.66862 10.756C5.89725 10.756 6.12012 10.6637 6.28178 10.502C6.44229 10.3415 6.53467 10.1175 6.53467 9.88998C6.53467 9.66135 6.44229 9.43848 6.28178 9.27797C6.12012 9.11631 5.89725 9.02393 5.66862 9.02393C5.44113 9.02393 5.21826 9.11631 5.0566 9.27797C4.89609 9.43848 4.80371 9.66135 4.80371 9.88998C4.80371 10.1175 4.89609 10.3415 5.0566 10.502C5.21826 10.6637 5.44113 10.756 5.66862 10.756Z" fill="white"/>
<path d="M7.8143 10.756C8.04179 10.756 8.26465 10.6637 8.42632 10.502C8.58798 10.3403 8.68036 10.1175 8.68036 9.88998C8.68036 9.6625 8.58798 9.43848 8.42632 9.27797C8.26581 9.11631 8.04179 9.02393 7.8143 9.02393C7.58566 9.02393 7.3628 9.11631 7.20113 9.27797C7.04062 9.43848 6.94824 9.66135 6.94824 9.88998C6.94824 10.1175 7.04062 10.3415 7.20113 10.502C7.3628 10.6637 7.58566 10.756 7.8143 10.756Z" fill="white"/>
<path d="M9.73501 15.0928H4.19223C3.71394 15.0928 3.32617 15.4805 3.32617 15.9588C3.32617 16.4371 3.71394 16.8249 4.19223 16.8249H9.73501C10.2133 16.8249 10.6011 16.4371 10.6011 15.9588C10.6011 15.4805 10.2133 15.0928 9.73501 15.0928Z" fill="white"/>
<path d="M9.73501 18.2107H4.19223C3.71394 18.2107 3.32617 18.5985 3.32617 19.0768C3.32617 19.555 3.71394 19.9428 4.19223 19.9428H9.73501C10.2133 19.9428 10.6011 19.555 10.6011 19.0768C10.6011 18.5985 10.2133 18.2107 9.73501 18.2107Z" fill="white"/>
<path d="M9.73501 21.3284H4.19223C3.71394 21.3284 3.32617 21.7161 3.32617 22.1944C3.32617 22.6727 3.71394 23.0605 4.19223 23.0605H9.73501C10.2133 23.0605 10.6011 22.6727 10.6011 22.1944C10.6011 21.7161 10.2133 21.3284 9.73501 21.3284Z" fill="white"/>
</svg>
