<svg width="52" height="52" viewBox="0 0 52 52" fill="none" xmlns="http://www.w3.org/2000/svg">
<path d="M1 12.5386H51" stroke="white" stroke-width="2" stroke-miterlimit="10" stroke-linecap="round" stroke-linejoin="round"/>
<path d="M8.69261 8.69235C8.11568 8.69235 7.73107 8.50004 7.34645 8.11542C6.96184 7.73081 6.76953 7.34619 6.76953 6.76927C6.76953 6.19235 6.96184 5.80773 7.34645 5.42311L7.53876 5.23081C7.73107 5.23081 7.73107 5.0385 7.92338 5.0385C8.11568 4.84619 8.11569 4.84619 8.30799 4.84619C8.5003 4.84619 8.88492 4.84619 9.07722 4.84619C9.26953 4.84619 9.26953 4.84619 9.46184 5.0385C9.65415 5.0385 9.65415 5.23081 9.84645 5.23081L10.0388 5.42311C10.2311 5.61542 10.4234 5.80773 10.4234 6.00004C10.6157 6.19235 10.6157 6.57696 10.6157 6.76927C10.6157 6.96158 10.6157 7.34619 10.4234 7.5385C10.4234 7.73081 10.2311 7.92311 10.0388 8.11542C9.65415 8.50004 9.26953 8.69235 8.69261 8.69235Z" fill="white"/>
<path d="M14.4612 8.69208C13.8842 8.69208 13.4996 8.49977 13.115 8.11516C12.7304 7.73054 12.5381 7.34593 12.5381 6.769C12.5381 6.5767 12.5381 6.19208 12.7304 5.99977C12.9227 5.80747 12.9227 5.61516 13.115 5.42285C13.3073 5.23054 13.4996 5.03823 13.6919 5.03823C14.4612 4.65362 15.2304 4.84593 15.8073 5.42285C15.9996 5.61516 16.1919 5.80747 16.1919 5.99977C16.3842 6.19208 16.3842 6.5767 16.3842 6.769C16.3842 7.34593 16.1919 7.73054 15.8073 8.11516C15.4227 8.49977 15.0381 8.69208 14.4612 8.69208Z" fill="white"/>
<path d="M20.2307 8.69234C20.0384 8.69234 19.6538 8.69234 19.4615 8.50004C19.2692 8.30773 19.0768 8.30773 18.8845 8.11542C18.6922 7.92311 18.4999 7.73081 18.4999 7.5385C18.3076 7.34619 18.3076 6.96158 18.3076 6.76927C18.3076 6.57696 18.3076 6.19234 18.4999 6.00004C18.6922 5.80773 18.6922 5.61542 18.8845 5.42311C19.6538 4.65388 20.8076 4.65388 21.5768 5.42311C21.7692 5.61542 21.9615 5.80773 21.9615 6.00004C22.1538 6.19234 22.1538 6.57696 22.1538 6.76927C22.1538 6.96158 22.1538 7.34619 21.9615 7.5385C21.7692 7.73081 21.7692 7.92311 21.5768 8.11542C21.1922 8.50004 20.8076 8.69234 20.2307 8.69234Z" fill="white"/>
<path d="M16.3848 20.2307H35.6155" stroke="white" stroke-width="2" stroke-miterlimit="10" stroke-linecap="round" stroke-linejoin="round"/>
<path d="M16.3848 51H35.6155" stroke="white" stroke-width="2" stroke-miterlimit="10" stroke-linecap="round" stroke-linejoin="round"/>
<path d="M18.3076 20.2307C18.3076 26.1923 21.1922 31.9615 25.9999 35.6153C30.8076 31.9615 33.6922 26.1923 33.6922 20.2307" stroke="white" stroke-width="2" stroke-miterlimit="10" stroke-linecap="round" stroke-linejoin="round"/>
<path d="M33.6922 51.0001C33.6922 45.0386 30.8076 39.2693 25.9999 35.6155C21.1922 39.2693 18.3076 45.0386 18.3076 51.0001" stroke="white" stroke-width="2" stroke-miterlimit="10" stroke-linecap="round" stroke-linejoin="round"/>
<path d="M32.1538 43.3077H47.1538C49.2692 43.3077 51 41.5769 51 39.4615V4.84615C51 2.73077 49.2692 1 47.1538 1H4.84615C2.73077 1 1 2.73077 1 4.84615V39.4615C1 41.5769 2.73077 43.3077 4.84615 43.3077H19.8462" stroke="white" stroke-width="2" stroke-miterlimit="10" stroke-linecap="round" stroke-linejoin="round"/>
</svg>
