<svg width="80" height="80" viewBox="0 0 80 80" fill="none" xmlns="http://www.w3.org/2000/svg">
<circle cx="40" cy="40" r="39.5" fill="#FFF6F8" stroke="#FFF6F8"/>
<path d="M24.8144 30.6343C23.2608 30.6343 22 31.8951 22 33.4487V44.7062C22 46.2597 23.2608 47.5205 24.8144 47.5205C26.3679 47.5205 27.6288 46.2597 27.6288 44.7062V33.4487C27.6288 31.8937 26.3679 30.6343 24.8144 30.6343Z" fill="#EE3F59"/>
<path d="M55.7714 30.6348C54.2179 30.6348 52.957 31.8956 52.957 33.4491V44.7067C52.957 46.2602 54.2179 47.521 55.7714 47.521C57.3249 47.521 58.5858 46.2602 58.5858 44.7067V33.4491C58.5858 31.8942 57.3249 30.6348 55.7714 30.6348Z" fill="#EE3F59"/>
<path d="M29.0352 53.1493H31.8495V60.1853C31.8495 61.7388 33.1104 62.9997 34.6639 62.9997C36.2175 62.9997 37.4783 61.7388 37.4783 60.1853V53.1493H43.107V60.1853C43.107 61.7388 44.3679 62.9997 45.9214 62.9997C47.475 62.9997 48.7358 61.7388 48.7358 60.1853V53.1493H51.5502V32.0415H29.0352V53.1493Z" fill="#EE3F59"/>
<path d="M46.9388 21.5611L48.384 19.0577C48.5796 18.72 48.4642 18.2908 48.1251 18.0952C47.7902 17.8996 47.3582 18.015 47.164 18.3541L45.7554 20.7942C44.1371 19.8936 42.2768 19.3771 40.2927 19.3771C38.3099 19.3771 36.4496 19.8936 34.83 20.7956L33.42 18.3527C33.2244 18.0164 32.7966 17.901 32.4574 18.0952C32.1225 18.2894 32.0071 18.7186 32.1999 19.0563L33.6465 21.5611C30.8561 23.61 29.0352 26.9056 29.0352 30.6346H51.5502C51.5502 26.9056 49.7293 23.61 46.9388 21.5611ZM36.0711 26.4131C35.2929 26.4131 34.6639 25.7841 34.6639 25.0059C34.6639 24.2277 35.2929 23.5987 36.0711 23.5987C36.8493 23.5987 37.4783 24.2277 37.4783 25.0059C37.4783 25.7841 36.8493 26.4131 36.0711 26.4131ZM44.5142 26.4131C43.7361 26.4131 43.107 25.7841 43.107 25.0059C43.107 24.2277 43.7361 23.5987 44.5142 23.5987C45.2924 23.5987 45.9214 24.2277 45.9214 25.0059C45.9214 25.7841 45.2924 26.4131 44.5142 26.4131Z" fill="#EE3F59"/>
</svg>
