<svg width="80" height="80" viewBox="0 0 80 80" fill="none" xmlns="http://www.w3.org/2000/svg">
<circle cx="40" cy="40" r="39.5" fill="#FFF6F8" stroke="#FFF6F8"/>
<path d="M52.6063 40.9123C52.5496 35.2121 57.2546 32.4782 57.465 32.3401C54.8207 28.4738 50.701 27.9433 49.2348 27.8829C45.7317 27.5271 42.3959 29.9464 40.6187 29.9464C38.8451 29.9464 36.0993 27.935 33.1943 27.9862C29.3729 28.043 25.8505 30.2089 23.8839 33.6297C19.9152 40.5144 22.8687 50.7175 26.7359 56.3052C28.6265 59.0364 30.8811 62.1097 33.8392 61.9972C36.6902 61.8847 37.7658 60.1532 41.2123 60.1532C44.6588 60.1532 45.6265 61.9972 48.6421 61.9396C51.7081 61.8838 53.6518 59.1562 55.5268 56.4141C57.6973 53.2411 58.591 50.1687 58.644 50.0132C58.5772 49.9821 52.6676 47.7183 52.6063 40.9123Z" fill="#EE3F59"/>
<path d="M46.9382 24.1847C48.5068 22.2804 49.5697 19.6342 49.2806 17C47.0168 17.0915 44.2765 18.5046 42.6511 20.4071C41.195 22.0956 39.9218 24.7838 40.2629 27.3705C42.7883 27.5662 45.364 26.0854 46.9382 24.1847Z" fill="#EE3F59"/>
</svg>
