<svg width="44" height="47" viewBox="0 0 44 47" fill="none" xmlns="http://www.w3.org/2000/svg">
<path d="M13.8555 39.5715V46.0001" stroke="#EE3F59" stroke-width="2" stroke-linecap="round" stroke-linejoin="round"/>
<path d="M4.21429 1H23.5C24.3525 1 25.17 1.33865 25.7728 1.94144C26.3756 2.54424 26.7143 3.3618 26.7143 4.21429V45.5982C26.7143 45.7048 26.672 45.807 26.5966 45.8823C26.5213 45.9577 26.4191 46 26.3125 46H1V4.21429C1 3.3618 1.33865 2.54424 1.94144 1.94144C2.54424 1.33865 3.3618 1 4.21429 1V1Z" stroke="#EE3F59" stroke-width="2" stroke-linecap="round" stroke-linejoin="round"/>
<path d="M28.322 17.0715H39.572C40.4245 17.0715 41.242 17.4102 41.8448 18.013C42.4476 18.6158 42.7863 19.4333 42.7863 20.2858V46.0001H26.7148V18.6787C26.7148 18.2524 26.8842 17.8437 27.1856 17.5423C27.487 17.2409 27.8957 17.0715 28.322 17.0715Z" stroke="#EE3F59" stroke-width="2" stroke-linecap="round" stroke-linejoin="round"/>
<path d="M6.0304 41.1656C5.69755 41.2091 5.35943 41.1473 5.06348 40.9889C4.76753 40.8304 4.52862 40.5833 4.38028 40.2822C4.23194 39.9811 4.18161 39.641 4.23637 39.3099C4.29112 38.9787 4.4482 38.6729 4.68557 38.4356C4.92293 38.1982 5.22866 38.0411 5.55985 37.9864C5.89104 37.9316 6.23106 37.9819 6.53219 38.1303C6.83332 38.2786 7.08045 38.5175 7.23888 38.8135C7.39731 39.1094 7.45909 39.4476 7.41556 39.7804C7.36962 40.1317 7.20891 40.4579 6.95841 40.7084C6.70791 40.9589 6.38167 41.1196 6.0304 41.1656Z" fill="#EE3F59"/>
<path d="M6.0304 33.1299C5.69755 33.1734 5.35943 33.1117 5.06348 32.9532C4.76753 32.7948 4.52862 32.5477 4.38028 32.2466C4.23194 31.9454 4.18161 31.6054 4.23637 31.2742C4.29112 30.943 4.4482 30.6373 4.68557 30.3999C4.92293 30.1626 5.22866 30.0055 5.55985 29.9507C5.89104 29.896 6.23106 29.9463 6.53219 30.0946C6.83332 30.243 7.08045 30.4819 7.23888 30.7778C7.39731 31.0738 7.45909 31.4119 7.41556 31.7448C7.36962 32.096 7.20891 32.4223 6.95841 32.6728C6.70791 32.9233 6.38167 33.084 6.0304 33.1299Z" fill="#EE3F59"/>
<path d="M6.0304 25.094C5.69755 25.1376 5.35943 25.0758 5.06348 24.9173C4.76753 24.7589 4.52862 24.5118 4.38028 24.2107C4.23194 23.9095 4.18161 23.5695 4.23637 23.2383C4.29112 22.9071 4.4482 22.6014 4.68557 22.364C4.92293 22.1267 5.22866 21.9696 5.55985 21.9148C5.89104 21.8601 6.23106 21.9104 6.53219 22.0587C6.83332 22.2071 7.08045 22.446 7.23888 22.7419C7.39731 23.0379 7.45909 23.376 7.41556 23.7089C7.36962 24.0601 7.20891 24.3864 6.95841 24.6369C6.70791 24.8874 6.38167 25.0481 6.0304 25.094Z" fill="#EE3F59"/>
<path d="M6.0304 17.0584C5.69755 17.1019 5.35943 17.0401 5.06348 16.8817C4.76753 16.7233 4.52862 16.4761 4.38028 16.175C4.23194 15.8739 4.18161 15.5339 4.23637 15.2027C4.29112 14.8715 4.4482 14.5658 4.68557 14.3284C4.92293 14.091 5.22866 13.9339 5.55985 13.8792C5.89104 13.8244 6.23106 13.8748 6.53219 14.0231C6.83332 14.1714 7.08045 14.4104 7.23888 14.7063C7.39731 15.0022 7.45909 15.3404 7.41556 15.6732C7.36962 16.0245 7.20891 16.3507 6.95841 16.6012C6.70791 16.8517 6.38167 17.0124 6.0304 17.0584Z" fill="#EE3F59"/>
<path d="M6.0304 9.02274C5.69755 9.06627 5.35943 9.00449 5.06348 8.84606C4.76753 8.68762 4.52862 8.4405 4.38028 8.13937C4.23194 7.83824 4.18161 7.49822 4.23637 7.16703C4.29112 6.83584 4.4482 6.53011 4.68557 6.29274C4.92293 6.05538 5.22866 5.8983 5.55985 5.84354C5.89104 5.78879 6.23106 5.83912 6.53219 5.98746C6.83332 6.1358 7.08045 6.37471 7.23888 6.67066C7.39731 6.9666 7.45909 7.30473 7.41556 7.63758C7.36962 7.98885 7.20891 8.31509 6.95841 8.56559C6.70791 8.81609 6.38167 8.9768 6.0304 9.02274Z" fill="#EE3F59"/>
<path d="M14.0656 33.1299C13.7327 33.1734 13.3946 33.1117 13.0986 32.9532C12.8027 32.7948 12.5638 32.5477 12.4154 32.2466C12.2671 31.9454 12.2168 31.6054 12.2715 31.2742C12.3263 30.943 12.4834 30.6373 12.7207 30.3999C12.9581 30.1626 13.2638 30.0055 13.595 29.9507C13.9262 29.896 14.2662 29.9463 14.5674 30.0946C14.8685 30.243 15.1156 30.4819 15.274 30.7778C15.4325 31.0738 15.4942 31.4119 15.4507 31.7448C15.4048 32.096 15.2441 32.4223 14.9936 32.6728C14.7431 32.9233 14.4168 33.084 14.0656 33.1299Z" fill="#EE3F59"/>
<path d="M14.0656 25.094C13.7327 25.1376 13.3946 25.0758 13.0986 24.9173C12.8027 24.7589 12.5638 24.5118 12.4154 24.2107C12.2671 23.9095 12.2168 23.5695 12.2715 23.2383C12.3263 22.9071 12.4834 22.6014 12.7207 22.364C12.9581 22.1267 13.2638 21.9696 13.595 21.9148C13.9262 21.8601 14.2662 21.9104 14.5674 22.0587C14.8685 22.2071 15.1156 22.446 15.274 22.7419C15.4325 23.0379 15.4942 23.376 15.4507 23.7089C15.4048 24.0601 15.2441 24.3864 14.9936 24.6369C14.7431 24.8874 14.4168 25.0481 14.0656 25.094Z" fill="#EE3F59"/>
<path d="M14.0656 17.0584C13.7327 17.1019 13.3946 17.0401 13.0986 16.8817C12.8027 16.7233 12.5638 16.4761 12.4154 16.175C12.2671 15.8739 12.2168 15.5339 12.2715 15.2027C12.3263 14.8715 12.4834 14.5658 12.7207 14.3284C12.9581 14.091 13.2638 13.9339 13.595 13.8792C13.9262 13.8244 14.2662 13.8748 14.5674 14.0231C14.8685 14.1714 15.1156 14.4104 15.274 14.7063C15.4325 15.0022 15.4942 15.3404 15.4507 15.6732C15.4048 16.0245 15.2441 16.3507 14.9936 16.6012C14.7431 16.8517 14.4168 17.0124 14.0656 17.0584Z" fill="#EE3F59"/>
<path d="M14.0656 9.02274C13.7327 9.06627 13.3946 9.00449 13.0986 8.84606C12.8027 8.68762 12.5638 8.4405 12.4154 8.13937C12.2671 7.83824 12.2168 7.49822 12.2715 7.16703C12.3263 6.83584 12.4834 6.53011 12.7207 6.29274C12.9581 6.05538 13.2638 5.8983 13.595 5.84354C13.9262 5.78879 14.2662 5.83912 14.5674 5.98746C14.8685 6.1358 15.1156 6.37471 15.274 6.67066C15.4325 6.9666 15.4942 7.30473 15.4507 7.63758C15.4048 7.98885 15.2441 8.31509 14.9936 8.56559C14.7431 8.81609 14.4168 8.9768 14.0656 9.02274Z" fill="#EE3F59"/>
<path d="M22.1007 41.1656C21.7679 41.2091 21.4297 41.1473 21.1338 40.9889C20.8378 40.8304 20.5989 40.5833 20.4506 40.2822C20.3023 39.9811 20.2519 39.641 20.3067 39.3099C20.3614 38.9787 20.5185 38.6729 20.7559 38.4356C20.9932 38.1982 21.299 38.0411 21.6302 37.9864C21.9614 37.9316 22.3014 37.9819 22.6025 38.1303C22.9036 38.2786 23.1508 38.5175 23.3092 38.8135C23.4676 39.1094 23.5294 39.4476 23.4859 39.7804C23.4399 40.1317 23.2792 40.4579 23.0287 40.7084C22.7782 40.9589 22.452 41.1196 22.1007 41.1656Z" fill="#EE3F59"/>
<path d="M22.1007 33.1299C21.7679 33.1734 21.4297 33.1117 21.1338 32.9532C20.8378 32.7948 20.5989 32.5477 20.4506 32.2466C20.3023 31.9454 20.2519 31.6054 20.3067 31.2742C20.3614 30.943 20.5185 30.6373 20.7559 30.3999C20.9932 30.1626 21.299 30.0055 21.6302 29.9507C21.9614 29.896 22.3014 29.9463 22.6025 30.0946C22.9036 30.243 23.1508 30.4819 23.3092 30.7778C23.4676 31.0738 23.5294 31.4119 23.4859 31.7448C23.4399 32.096 23.2792 32.4223 23.0287 32.6728C22.7782 32.9233 22.452 33.084 22.1007 33.1299Z" fill="#EE3F59"/>
<path d="M22.1007 25.094C21.7679 25.1376 21.4297 25.0758 21.1338 24.9173C20.8378 24.7589 20.5989 24.5118 20.4506 24.2107C20.3023 23.9095 20.2519 23.5695 20.3067 23.2383C20.3614 22.9071 20.5185 22.6014 20.7559 22.364C20.9932 22.1267 21.299 21.9696 21.6302 21.9148C21.9614 21.8601 22.3014 21.9104 22.6025 22.0587C22.9036 22.2071 23.1508 22.446 23.3092 22.7419C23.4676 23.0379 23.5294 23.376 23.4859 23.7089C23.4399 24.0601 23.2792 24.3864 23.0287 24.6369C22.7782 24.8874 22.452 25.0481 22.1007 25.094Z" fill="#EE3F59"/>
<path d="M23.0311 16.602C23.6567 15.9763 23.6542 14.9594 23.0254 14.3306C22.3966 13.7018 21.3796 13.6992 20.754 14.3249C20.1283 14.9506 20.1308 15.9675 20.7596 16.5963C21.3885 17.2251 22.4054 17.2277 23.0311 16.602Z" fill="#EE3F59"/>
<path d="M22.1007 9.02274C21.7679 9.06627 21.4297 9.00449 21.1338 8.84606C20.8378 8.68762 20.5989 8.4405 20.4506 8.13937C20.3023 7.83824 20.2519 7.49822 20.3067 7.16703C20.3614 6.83584 20.5185 6.53011 20.7559 6.29274C20.9932 6.05538 21.299 5.8983 21.6302 5.84354C21.9614 5.78879 22.3014 5.83912 22.6025 5.98746C22.9036 6.1358 23.1508 6.37471 23.3092 6.67066C23.4676 6.9666 23.5294 7.30473 23.4859 7.63758C23.4399 7.98885 23.2792 8.31509 23.0287 8.56559C22.7782 8.81609 22.452 8.9768 22.1007 9.02274Z" fill="#EE3F59"/>
<path d="M36.3571 37.9644C36.0393 37.9644 35.7286 38.0586 35.4643 38.2352C35.2 38.4118 34.994 38.6628 34.8723 38.9565C34.7507 39.2501 34.7189 39.5733 34.7809 39.885C34.8429 40.1968 34.996 40.4832 35.2207 40.7079C35.4455 40.9327 35.7318 41.0857 36.0436 41.1478C36.3554 41.2098 36.6785 41.1779 36.9722 41.0563C37.2658 40.9347 37.5168 40.7287 37.6934 40.4644C37.87 40.2001 37.9643 39.8894 37.9643 39.5715C37.9643 39.1453 37.795 38.7365 37.4936 38.4351C37.1922 38.1337 36.7834 37.9644 36.3571 37.9644Z" fill="#EE3F59"/>
<path d="M36.3571 29.9285C36.0393 29.9285 35.7286 30.0227 35.4643 30.1993C35.2 30.3759 34.994 30.6269 34.8723 30.9206C34.7507 31.2143 34.7189 31.5374 34.7809 31.8491C34.8429 32.1609 34.996 32.4473 35.2207 32.672C35.4455 32.8968 35.7318 33.0499 36.0436 33.1119C36.3554 33.1739 36.6785 33.1421 36.9722 33.0204C37.2658 32.8988 37.5168 32.6928 37.6934 32.4285C37.87 32.1642 37.9643 31.8535 37.9643 31.5356C37.9643 31.1094 37.795 30.7006 37.4936 30.3992C37.1922 30.0978 36.7834 29.9285 36.3571 29.9285Z" fill="#EE3F59"/>
<path d="M36.3571 21.8928C36.0393 21.8928 35.7286 21.9871 35.4643 22.1637C35.2 22.3403 34.994 22.5913 34.8723 22.8849C34.7507 23.1786 34.7189 23.5017 34.7809 23.8135C34.8429 24.1253 34.996 24.4116 35.2207 24.6364C35.4455 24.8612 35.7318 25.0142 36.0436 25.0762C36.3554 25.1382 36.6785 25.1064 36.9722 24.9848C37.2658 24.8631 37.5168 24.6571 37.6934 24.3928C37.87 24.1286 37.9643 23.8178 37.9643 23.5C37.9643 23.0737 37.795 22.6649 37.4936 22.3635C37.1922 22.0621 36.7834 21.8928 36.3571 21.8928Z" fill="#EE3F59"/>
<path d="M29.9275 37.9644C29.6096 37.9644 29.2989 38.0586 29.0346 38.2352C28.7703 38.4118 28.5643 38.6628 28.4426 38.9565C28.321 39.2501 28.2892 39.5733 28.3512 39.885C28.4132 40.1968 28.5663 40.4832 28.791 40.7079C29.0158 40.9327 29.3022 41.0857 29.6139 41.1478C29.9257 41.2098 30.2488 41.1779 30.5425 41.0563C30.8361 40.9347 31.0872 40.7287 31.2637 40.4644C31.4403 40.2001 31.5346 39.8894 31.5346 39.5715C31.5346 39.1453 31.3653 38.7365 31.0639 38.4351C30.7625 38.1337 30.3537 37.9644 29.9275 37.9644Z" fill="#EE3F59"/>
<path d="M29.9275 29.9285C29.6096 29.9285 29.2989 30.0227 29.0346 30.1993C28.7703 30.3759 28.5643 30.6269 28.4426 30.9206C28.321 31.2143 28.2892 31.5374 28.3512 31.8491C28.4132 32.1609 28.5663 32.4473 28.791 32.672C29.0158 32.8968 29.3022 33.0499 29.6139 33.1119C29.9257 33.1739 30.2488 33.1421 30.5425 33.0204C30.8361 32.8988 31.0872 32.6928 31.2637 32.4285C31.4403 32.1642 31.5346 31.8535 31.5346 31.5356C31.5346 31.1094 31.3653 30.7006 31.0639 30.3992C30.7625 30.0978 30.3537 29.9285 29.9275 29.9285Z" fill="#EE3F59"/>
<path d="M29.9275 21.8928C29.6096 21.8928 29.2989 21.9871 29.0346 22.1637C28.7703 22.3403 28.5643 22.5913 28.4426 22.8849C28.321 23.1786 28.2892 23.5017 28.3512 23.8135C28.4132 24.1253 28.5663 24.4116 28.791 24.6364C29.0158 24.8612 29.3022 25.0142 29.6139 25.0762C29.9257 25.1382 30.2488 25.1064 30.5425 24.9848C30.8361 24.8631 31.0872 24.6571 31.2637 24.3928C31.4403 24.1286 31.5346 23.8178 31.5346 23.5C31.5346 23.0737 31.3653 22.6649 31.0639 22.3635C30.7625 22.0621 30.3537 21.8928 29.9275 21.8928Z" fill="#EE3F59"/>
</svg>
