<svg width="59" height="47" viewBox="0 0 59 47" fill="none" xmlns="http://www.w3.org/2000/svg">
<path d="M29.125 27.25C34.3027 27.25 38.5 23.0527 38.5 17.875C38.5 12.6973 34.3027 8.5 29.125 8.5C23.9473 8.5 19.75 12.6973 19.75 17.875C19.75 23.0527 23.9473 27.25 29.125 27.25Z" stroke="#EE3F59" stroke-width="2" stroke-linecap="round" stroke-linejoin="round"/>
<path d="M42.25 46C42.25 42.519 40.8672 39.1806 38.4058 36.7192C35.9444 34.2578 32.606 32.875 29.125 32.875C25.644 32.875 22.3056 34.2578 19.8442 36.7192C17.3828 39.1806 16 42.519 16 46H42.25Z" stroke="#EE3F59" stroke-width="2" stroke-linecap="round" stroke-linejoin="round"/>
<path d="M44.125 19.75C45.723 19.75 47.2945 19.3415 48.6903 18.5633C50.086 17.7851 51.2597 16.6631 52.0999 15.3037C52.94 13.9444 53.4187 12.3928 53.4905 10.7964C53.5624 9.19998 53.2249 7.6117 52.5103 6.18238C51.7956 4.75305 50.7274 3.53014 49.4072 2.62975C48.087 1.72936 46.5585 1.1814 44.9669 1.03788C43.3754 0.894372 41.7735 1.16008 40.3135 1.80977C38.8535 2.45946 37.5838 3.47158 36.625 4.75" stroke="#EE3F59" stroke-width="2" stroke-linecap="round" stroke-linejoin="round"/>
<path d="M46 38.5H57.25C57.25 35.019 55.8672 31.6806 53.4058 29.2192C50.9444 26.7578 47.606 25.375 44.125 25.375" stroke="#EE3F59" stroke-width="2" stroke-linecap="round" stroke-linejoin="round"/>
<path d="M21.625 4.75C20.6662 3.47158 19.3965 2.45946 17.9365 1.80977C16.4765 1.16008 14.8746 0.894372 13.2831 1.03788C11.6915 1.1814 10.163 1.72936 8.8428 2.62975C7.52257 3.53014 6.45441 4.75305 5.73975 6.18238C5.02509 7.6117 4.68765 9.19998 4.75948 10.7964C4.83131 12.3928 5.31002 13.9444 6.15015 15.3037C6.99028 16.6631 8.16395 17.7851 9.55971 18.5633C10.9555 19.3415 12.527 19.75 14.125 19.75" stroke="#EE3F59" stroke-width="2" stroke-linecap="round" stroke-linejoin="round"/>
<path d="M14.125 25.375C10.644 25.375 7.30564 26.7578 4.84422 29.2192C2.38281 31.6806 1 35.019 1 38.5H12.25" stroke="#EE3F59" stroke-width="2" stroke-linecap="round" stroke-linejoin="round"/>
</svg>
