<svg width="50" height="47" viewBox="0 0 50 47" fill="none" xmlns="http://www.w3.org/2000/svg">
<path d="M1 46H48.3684" stroke="#EE3F59" stroke-width="2" stroke-linecap="round" stroke-linejoin="round"/>
<path d="M17.5804 22.3157H8.1067C6.79866 22.3157 5.73828 23.3761 5.73828 24.6841V43.6315C5.73828 44.9395 6.79866 45.9999 8.1067 45.9999H17.5804C18.8884 45.9999 19.9488 44.9395 19.9488 43.6315V24.6841C19.9488 23.3761 18.8884 22.3157 17.5804 22.3157Z" stroke="#EE3F59" stroke-width="2" stroke-linejoin="round"/>
<path d="M41.265 1H22.3176C21.0096 1 19.9492 2.06038 19.9492 3.36842V43.6316C19.9492 44.9396 21.0096 46 22.3176 46H41.265C42.5731 46 43.6334 44.9396 43.6334 43.6316V3.36842C43.6334 2.06038 42.5731 1 41.265 1Z" stroke="#EE3F59" stroke-width="2" stroke-linejoin="round"/>
<path d="M29.4219 34.1677H34.1587" stroke="#EE3F59" stroke-width="2" stroke-linecap="round" stroke-linejoin="round"/>
<path d="M10.4727 34.1677H15.2095" stroke="#EE3F59" stroke-width="2" stroke-linecap="round" stroke-linejoin="round"/>
<path d="M29.4219 23.5098H34.1587" stroke="#EE3F59" stroke-width="2" stroke-linecap="round" stroke-linejoin="round"/>
<path d="M29.4219 12.8521H34.1587" stroke="#EE3F59" stroke-width="2" stroke-linecap="round" stroke-linejoin="round"/>
</svg>
