<svg width="20" height="30" viewBox="0 0 20 30" fill="none" xmlns="http://www.w3.org/2000/svg">
<path d="M17.1429 0H2.14286C1.57454 0 1.02949 0.225765 0.627629 0.627628C0.225765 1.02949 0 1.57454 0 2.14286V27.8571C0 28.4255 0.225765 28.9705 0.627629 29.3724C1.02949 29.7742 1.57454 30 2.14286 30H17.1429C17.7112 30 18.2562 29.7742 18.6581 29.3724C19.0599 28.9705 19.2857 28.4255 19.2857 27.8571V2.14286C19.2857 1.57454 19.0599 1.02949 18.6581 0.627628C18.2562 0.225765 17.7112 0 17.1429 0ZM2.14286 2.14286H17.1429V21.4286H2.14286V2.14286ZM2.14286 27.8571V23.5714H17.1429V27.8571H2.14286Z" fill="#EE3F59"/>
<path d="M10.7132 24.6431H8.57031V26.7859H10.7132V24.6431Z" fill="#EE3F59"/>
</svg>
