<svg width="80" height="80" viewBox="0 0 80 80" fill="none" xmlns="http://www.w3.org/2000/svg">
<circle cx="40" cy="40" r="39.5" fill="#FFF6F8" stroke="#FFF6F8"/>
<path d="M40.5 51.6082C52.9264 51.6082 63 46.3234 63 39.8041C63 33.2849 52.9264 28 40.5 28C28.0736 28 18 33.2849 18 39.8041C18 46.3234 28.0736 51.6082 40.5 51.6082Z" fill="url(#paint0_radial_386_6)"/>
<path d="M40.5001 50.7311C52.4411 50.7311 62.1212 45.8388 62.1212 39.8038C62.1212 33.7688 52.4411 28.8765 40.5001 28.8765C28.559 28.8765 18.8789 33.7688 18.8789 39.8038C18.8789 45.8388 28.559 50.7311 40.5001 50.7311Z" fill="#EE3F59"/>
<path d="M44.8771 43.3356L45.9512 37.8313C46.1954 36.5892 45.9919 35.6637 45.3491 35.0792C44.7306 34.5109 43.6809 34.2349 42.1348 34.2349H40.2795L40.8084 31.5071C40.8247 31.4016 40.8002 31.296 40.7351 31.2149C40.67 31.1337 40.5724 31.085 40.4666 31.085H37.9033C37.7324 31.085 37.5941 31.2067 37.5616 31.3691L36.4223 37.2143C36.3165 36.5567 36.0643 35.9885 35.6574 35.5257C34.9087 34.6652 33.7125 34.2349 32.1257 34.2349H27.1538C26.9829 34.2349 26.8446 34.3567 26.812 34.519L24.501 46.3475C24.4847 46.453 24.5091 46.5586 24.5742 46.6398C24.6393 46.721 24.737 46.7697 24.8427 46.7697H27.4305C27.6013 46.7697 27.7397 46.6479 27.7722 46.4855L28.3337 43.6197H30.2541C31.2632 43.6197 32.1095 43.5142 32.7767 43.295C33.4521 43.0758 34.0787 42.7024 34.6239 42.1909C35.0715 41.785 35.4377 41.3304 35.7144 40.8351L35.2505 43.1976C35.2342 43.3031 35.2587 43.4087 35.3238 43.4898C35.3889 43.571 35.4865 43.6197 35.5923 43.6197H38.1556C38.3265 43.6197 38.4648 43.498 38.4974 43.3356L39.7587 36.8409H41.5163C42.265 36.8409 42.4847 36.987 42.5417 37.052C42.5986 37.1088 42.7125 37.3199 42.5823 37.9612L41.5814 43.2057C41.5652 43.3112 41.5896 43.4168 41.6547 43.498C41.7198 43.5791 41.8174 43.6279 41.9232 43.6279H44.5272C44.6981 43.6197 44.8446 43.5061 44.8771 43.3356ZM32.9965 38.7893C32.8337 39.6174 32.5326 40.2019 32.0932 40.5429C31.6456 40.8838 30.9377 41.0543 29.9775 41.0543H28.8301L29.6601 36.8003H31.1411C32.2315 36.8003 32.671 37.0357 32.8418 37.2306C33.086 37.4985 33.1429 38.0343 32.9965 38.7893Z" fill="white"/>
<path d="M55.8368 35.5257C55.0881 34.6651 53.8919 34.2349 52.3051 34.2349H47.3331C47.1623 34.2349 47.0239 34.3566 46.9914 34.519L44.6885 46.3556C44.6722 46.4611 44.6966 46.5667 44.7617 46.6479C44.8268 46.729 44.9245 46.7778 45.0302 46.7778H47.618C47.7888 46.7778 47.9272 46.656 47.9597 46.4936L48.5212 43.6278H50.4416C51.4507 43.6278 52.297 43.5223 52.9642 43.3031C53.6397 43.0839 54.2662 42.7104 54.8114 42.199C55.2671 41.7768 55.6496 41.306 55.9344 40.7945C56.2192 40.2831 56.4227 39.7148 56.5447 39.1059C56.8295 37.5959 56.5935 36.3944 55.8368 35.5257ZM53.1595 38.7893C52.9968 39.6173 52.6957 40.2019 52.2563 40.5428C51.8087 40.8838 51.1008 41.0543 50.1406 41.0543H48.9932L49.8232 36.8003H51.3042C52.3946 36.8003 52.834 37.0357 53.0049 37.2305C53.2572 37.4985 53.306 38.0343 53.1595 38.7893Z" fill="white"/>
<path d="M31.1418 36.4515C32.1264 36.4515 32.7774 36.6301 33.1029 36.9954C33.4284 37.3608 33.5098 37.9778 33.3389 38.8546C33.1599 39.7719 32.8181 40.4214 32.3054 40.8192C31.7928 41.2089 31.0197 41.4037 29.9781 41.4037H28.4076L29.376 36.4515H31.1418ZM24.8516 46.4209H27.4393L28.0496 43.2709H30.263C31.2394 43.2709 32.0451 43.1654 32.6716 42.9624C33.3064 42.7595 33.876 42.4185 34.3886 41.9314C34.8199 41.5336 35.1698 41.0952 35.4384 40.6162C35.7069 40.1373 35.8941 39.6096 36.008 39.0332C36.2847 37.6287 36.0731 36.5408 35.3895 35.7533C34.706 34.974 33.6156 34.5762 32.1183 34.5762H27.1545L24.8516 46.4209Z" fill="white"/>
<path d="M37.9126 31.4424H40.4759L39.8656 34.5923H42.1522C43.5925 34.5923 44.5772 34.844 45.1224 35.3392C45.6676 35.8425 45.8303 36.6463 45.6106 37.7666L44.5365 43.2709H41.9325L42.9497 38.0345C43.0636 37.4419 43.0229 37.0359 42.8195 36.8167C42.616 36.5975 42.1929 36.492 41.5338 36.492H39.4831L38.1649 43.2709H35.6016L37.9126 31.4424Z" fill="white"/>
<path d="M51.3059 36.4515C52.2905 36.4515 52.9415 36.6301 53.267 36.9954C53.5925 37.3608 53.6739 37.9778 53.503 38.8546C53.3239 39.7719 52.9822 40.4214 52.4695 40.8192C51.9569 41.2089 51.1838 41.4037 50.1422 41.4037H48.5717L49.54 36.4515H51.3059ZM45.0156 46.4209H47.6033L48.2136 43.2709H50.427C51.4035 43.2709 52.2091 43.1654 52.8357 42.9624C53.4704 42.7595 54.04 42.4185 54.5527 41.9314C54.984 41.5336 55.3339 41.0952 55.6024 40.6162C55.871 40.1373 56.0581 39.6096 56.172 39.0332C56.4487 37.6287 56.2371 36.5408 55.5536 35.7533C54.8701 34.974 53.7796 34.5762 52.2824 34.5762H47.3104L45.0156 46.4209Z" fill="white"/>
<defs>
<radialGradient id="paint0_radial_386_6" cx="0" cy="0" r="1" gradientUnits="userSpaceOnUse" gradientTransform="translate(31.5097 32.1487) scale(29.5435 29.4743)">
<stop stop-color="white"/>
<stop offset="0.5" stop-color="#EE3F59" stop-opacity="0.5"/>
<stop offset="1" stop-color="#8B2635"/>
</radialGradient>
</defs>
</svg>
