<svg width="80" height="80" viewBox="0 0 80 80" fill="none" xmlns="http://www.w3.org/2000/svg">
<circle cx="40" cy="40" r="39.5" fill="#FFF6F8" stroke="#FFF6F8"/>
<path d="M40.0714 34.9913C39.4846 34.9913 38.9034 35.1079 38.3612 35.3344C37.819 35.561 37.3264 35.893 36.9114 36.3116C36.4964 36.7301 36.1672 37.2271 35.9426 37.774C35.718 38.3209 35.6024 38.907 35.6024 39.499C35.6024 40.0909 35.718 40.6771 35.9426 41.224C36.1672 41.7709 36.4964 42.2678 36.9114 42.6864C37.3264 43.105 37.819 43.437 38.3612 43.6635C38.9034 43.8901 39.4846 44.0067 40.0714 44.0067C40.6583 44.0067 41.2394 43.8901 41.7816 43.6635C42.3238 43.437 42.8165 43.105 43.2315 42.6864C43.6465 42.2678 43.9756 41.7709 44.2002 41.224C44.4248 40.6771 44.5404 40.0909 44.5404 39.499C44.5404 38.907 44.4248 38.3209 44.2002 37.774C43.9756 37.2271 43.6465 36.7301 43.2315 36.3116C42.8165 35.893 42.3238 35.561 41.7816 35.3344C41.2394 35.1079 40.6583 34.9913 40.0714 34.9913ZM27.5524 48.4659L26.5663 48.213C19.2162 46.3395 15 43.1595 15 39.4906C15 35.8216 19.2162 32.6416 26.5663 30.7681L27.5524 30.5173L27.8303 31.5036C28.5749 34.0908 29.5273 36.6126 30.678 39.0438L30.889 39.4927L30.678 39.9415C29.5254 42.3719 28.5729 44.8938 27.8303 47.4817L27.5524 48.4659ZM26.1087 33.0715C20.522 34.6541 17.0935 37.0755 17.0935 39.4906C17.0935 41.9035 20.522 44.3249 26.1087 45.9096C26.792 43.7178 27.6169 41.5735 28.5783 39.4906C27.6158 37.4081 26.7908 35.2637 26.1087 33.0715ZM52.5904 48.4659L52.3125 47.4775C51.5687 44.8904 50.6156 42.3692 49.4628 39.9394L49.2517 39.4906L49.4628 39.0417C50.6152 36.611 51.5683 34.0891 52.3125 31.5015L52.5904 30.5152L53.5787 30.766C60.9267 32.6395 65.1429 35.8195 65.1429 39.4906C65.1429 43.1616 60.9267 46.3395 53.5787 48.213L52.5904 48.4659ZM51.5646 39.4906C52.5674 41.6801 53.3969 43.8318 54.0341 45.9096C59.623 44.3249 63.0494 41.9035 63.0494 39.4906C63.0494 37.0755 59.6209 34.6562 54.0341 33.0715C53.3518 35.2636 52.5268 37.408 51.5646 39.4906ZM26.0941 33.0609L25.8162 32.0768C23.7499 24.7305 24.3767 19.4662 27.5357 17.6286C30.6341 15.8247 35.6087 17.9552 40.8215 23.3522L41.5318 24.0877L40.8215 24.8232C38.9692 26.7654 37.2769 28.8565 35.7612 31.0758L35.4792 31.4825L34.9882 31.5247C32.3221 31.7367 29.6774 32.1666 27.0802 32.8102L26.0941 33.0609ZM30.0554 19.089C29.4955 19.089 29.0003 19.2112 28.5824 19.4536C26.5057 20.6611 26.138 24.859 27.5691 30.5237C29.7956 30.0241 32.0519 29.6714 34.3238 29.4679C35.6347 27.5878 37.0668 25.7969 38.611 24.1067C35.3517 20.9056 32.2659 19.089 30.0554 19.089ZM50.0896 61.9995C50.0875 61.9995 50.0875 61.9995 50.0896 61.9995C47.1123 61.9995 43.2889 59.7383 39.3214 55.6289L38.611 54.8934L39.3214 54.1579C41.1731 52.2151 42.8648 50.1233 44.3795 47.9032L44.6616 47.4965L45.1505 47.4543C47.818 47.2435 50.4641 46.8143 53.0626 46.1709L54.0487 45.9202L54.3287 46.9064C56.3908 54.2485 55.7661 59.5149 52.6071 61.3504C51.8398 61.788 50.971 62.012 50.0896 61.9995ZM41.5318 54.8744C44.7911 58.0755 47.877 59.8921 50.0875 59.8921H50.0896C50.6474 59.8921 51.1446 59.7699 51.5604 59.5275C53.6372 58.32 54.007 54.12 52.5737 48.4553C50.3467 48.9556 48.0896 49.3083 45.817 49.5111C44.5077 51.3925 43.0762 53.1842 41.5318 54.8744ZM54.0487 33.0609L53.0626 32.8102C50.4644 32.1647 47.8182 31.7348 45.1505 31.5247L44.6616 31.4825L44.3795 31.0758C42.8656 28.8558 41.1739 26.7646 39.3214 24.8232L38.611 24.0877L39.3214 23.3522C44.5321 17.9574 49.5046 15.8268 52.6071 17.6286C55.7661 19.4662 56.3929 24.7305 54.3287 32.0747L54.0487 33.0609ZM45.817 29.4679C48.2029 29.687 50.4698 30.0432 52.5737 30.5237C54.007 24.859 53.6372 20.6611 51.5604 19.4536C49.4962 18.2503 45.6164 20.0942 41.5318 24.1067C43.0753 25.797 44.5068 27.5879 45.817 29.4679ZM30.0554 61.9995C29.1733 62.0124 28.3037 61.7884 27.5357 61.3504C24.3767 59.5149 23.7499 54.2506 25.8162 46.9064L26.092 45.9202L27.0782 46.1709C29.4913 46.7842 32.153 47.2162 34.9861 47.4543L35.4771 47.4965L35.7571 47.9032C37.2729 50.123 38.9653 52.2148 40.8173 54.1579L41.5277 54.8934L40.8173 55.6289C36.8518 59.7383 33.0284 61.9995 30.0554 61.9995ZM27.5691 48.4553C26.1359 54.12 26.5057 58.32 28.5824 59.5275C30.6446 60.714 34.5223 58.8848 38.611 54.8744C37.0675 53.1829 35.6353 51.3913 34.3238 49.5111C32.0518 49.3085 29.7954 48.9558 27.5691 48.4553ZM40.0714 49.7788C38.3519 49.7788 36.5844 49.7029 34.8148 49.5554L34.3238 49.5132L34.0417 49.1065C33.0408 47.6558 32.0998 46.1639 31.2212 44.6347C30.3452 43.1042 29.5325 41.5378 28.7851 39.9394L28.5762 39.4906L28.7851 39.0417C29.5324 37.4433 30.3451 35.8768 31.2212 34.3464C32.0862 32.8376 33.0368 31.3329 34.0417 29.8746L34.3238 29.4679L34.8148 29.4257C38.3136 29.1265 41.8313 29.1265 45.3302 29.4257L45.8191 29.4679L46.099 29.8746C48.103 32.7766 49.8621 35.843 51.3577 39.0417L51.5688 39.4906L51.3577 39.9394C49.8657 43.14 48.1064 46.2067 46.099 49.1065L45.8191 49.5132L45.3302 49.5554C43.5605 49.7029 41.7909 49.7788 40.0714 49.7788ZM35.4813 47.4944C38.5734 47.7283 41.5694 47.7283 44.6637 47.4944C46.3912 44.9471 47.9249 42.2715 49.2517 39.4906C47.9273 36.7079 46.3927 34.0321 44.6616 31.4867C41.6059 31.2528 38.537 31.2528 35.4813 31.4867C33.7494 34.0316 32.2148 36.7075 30.8911 39.4906C32.2194 42.2712 33.7538 44.9467 35.4813 47.4944Z" fill="#EE3F59"/>
</svg>
