<svg width="565" height="421" viewBox="0 0 565 421" fill="none" xmlns="http://www.w3.org/2000/svg">
<path d="M564.932 369.976H0V370.258H564.932V369.976Z" fill="#EFF2FF"/>
<path d="M508.324 388.154H483.828V388.437H508.324V388.154Z" fill="#EFF2FF"/>
<path d="M389.43 382.291H350.891V382.573H389.43V382.291Z" fill="#EFF2FF"/>
<path d="M498.403 377.67H448.09V377.952H498.403V377.67Z" fill="#EFF2FF"/>
<path d="M195.489 383.364H182.902V383.647H195.489V383.364Z" fill="#EFF2FF"/>
<path d="M172.836 383.364H129.461V383.647H172.836V383.364Z" fill="#EFF2FF"/>
<path d="M106.219 378.596H74.9219V378.878H106.219V378.596Z" fill="#EFF2FF"/>
<path d="M267.777 319.583H49.6121C47.903 319.58 46.2649 318.899 45.0575 317.689C43.85 316.48 43.1719 314.841 43.1719 313.132V6.45155C43.1719 4.74244 43.85 3.10318 45.0575 1.8936C46.2649 0.684029 47.903 0.00299317 49.6121 0L267.777 0C269.488 0 271.129 0.679714 272.339 1.88961C273.549 3.09951 274.229 4.74049 274.229 6.45155V313.132C274.229 313.979 274.062 314.818 273.738 315.6C273.414 316.383 272.938 317.094 272.339 317.693C271.74 318.293 271.029 318.768 270.246 319.092C269.464 319.416 268.625 319.583 267.777 319.583ZM49.6121 0.282467C47.9779 0.28546 46.4117 0.936736 45.2572 2.09334C44.1027 3.24994 43.4543 4.81736 43.4543 6.45155V313.132C43.4543 314.766 44.1027 316.333 45.2572 317.49C46.4117 318.646 47.9779 319.298 49.6121 319.301H267.777C269.413 319.298 270.98 318.647 272.136 317.49C273.293 316.334 273.943 314.767 273.946 313.132V6.45155C273.943 4.81632 273.293 3.24893 272.136 2.09265C270.98 0.936367 269.413 0.285454 267.777 0.282467H49.6121Z" fill="#EFF2FF"/>
<path d="M512.179 319.583H294.002C292.292 319.58 290.653 318.899 289.444 317.69C288.234 316.481 287.554 314.842 287.551 313.132V6.45155C287.554 4.74141 288.234 3.10217 289.444 1.89291C290.653 0.683661 292.292 0.00298715 294.002 0L512.179 0C513.886 0.0059795 515.521 0.688333 516.726 1.89758C517.931 3.10684 518.608 4.7444 518.608 6.45155V313.132C518.608 314.839 517.931 316.476 516.726 317.686C515.521 318.895 513.886 319.577 512.179 319.583ZM294.002 0.282467C292.367 0.285454 290.8 0.936367 289.643 2.09265C288.487 3.24893 287.836 4.81632 287.833 6.45155V313.132C287.836 314.767 288.487 316.334 289.643 317.49C290.8 318.647 292.367 319.298 294.002 319.301H512.179C513.814 319.298 515.381 318.647 516.538 317.49C517.694 316.334 518.345 314.767 518.348 313.132V6.45155C518.345 4.81632 517.694 3.24893 516.538 2.09265C515.381 0.936367 513.814 0.285454 512.179 0.282467H294.002Z" fill="#EFF2FF"/>
<path d="M244.13 164.881L244.638 150.024L235.532 147.052C235.138 142.04 234.322 137.069 233.091 132.194L240.819 126.545L235.577 112.501L226.018 113.269C223.752 108.777 221.106 104.487 218.109 100.445L223.058 92.1857L212.889 81.3276L204.347 85.7002C200.504 82.417 196.4 79.4508 192.077 76.8308L193.456 67.3512L179.897 61.1934L173.683 68.481C168.889 66.9475 163.976 65.8137 158.995 65.0914L156.735 55.7926L141.843 55.2842L138.815 64.4022C133.789 64.7974 128.804 65.6099 123.912 66.8314L118.173 59.137L104.23 64.3005L104.999 73.8592C100.509 76.1639 96.219 78.8397 92.1746 81.8587L83.9492 76.9098L73.046 87.0787L77.4186 95.6544C74.137 99.4821 71.1886 103.583 68.6056 107.913L59.1261 106.49L52.9344 120.048L60.2559 126.262C58.7103 131.053 57.5763 135.967 56.8664 140.951L47.4546 143.278L46.9688 158.181L56.1206 161.164C56.4992 166.192 57.312 171.179 58.5498 176.067L50.8216 181.716L56.0754 195.67L65.6341 194.891C67.892 199.387 70.5384 203.678 73.5431 207.715L68.583 215.985L78.7518 226.843L87.2936 222.459C91.1243 225.746 95.2209 228.708 99.5413 231.318L98.1177 240.797L111.676 246.955L117.924 239.679C122.721 241.202 127.633 242.335 132.612 243.068L134.872 252.356L149.764 252.864L152.701 243.757C157.731 243.354 162.719 242.538 167.616 241.317L173.265 249.011L187.207 243.803L186.484 234.244C190.968 231.929 195.257 229.254 199.308 226.244L207.522 231.205L218.426 221.036L214.053 212.46C217.338 208.639 220.287 204.541 222.866 200.212L232.345 201.636L238.537 188.078L231.216 181.863C232.784 177.075 233.937 172.161 234.662 167.175L244.13 164.881ZM143.809 212.98C132.158 212.586 120.885 208.746 111.417 201.945C101.949 195.143 94.7102 185.687 90.6172 174.771C86.5242 163.855 85.7605 151.971 88.4228 140.621C91.085 129.271 97.0537 118.966 105.574 111.009C114.094 103.051 124.782 97.7999 136.287 95.9183C147.792 94.0367 159.597 95.6096 170.208 100.438C180.819 105.266 189.759 113.133 195.899 123.044C202.038 132.954 205.1 144.463 204.698 156.114C204.161 171.728 197.446 186.49 186.028 197.154C174.61 207.818 159.424 213.51 143.809 212.98Z" fill="#EFF2FF"/>
<path d="M498.273 115.777L502.013 112.286L500.533 109.337C501.647 108.005 502.644 106.58 503.516 105.078L506.793 105.575L508.905 100.897L506.397 98.7503C506.937 97.1003 507.334 95.4067 507.584 93.6885L510.804 92.875L510.962 87.7454L507.821 86.7285C507.683 84.9949 507.403 83.2756 506.985 81.5876L509.64 79.6103L507.832 74.8084L504.544 75.0683C503.751 73.5196 502.833 72.0383 501.799 70.6392L503.505 67.8145L499.991 64.0521L497.053 65.5661C495.733 64.4324 494.319 63.4119 492.828 62.5154L493.302 59.2501L488.636 57.1147L486.489 59.6343C484.832 59.1183 483.135 58.7404 481.416 58.5044L480.614 55.2843L475.484 55.1035L474.456 58.2671C472.725 58.3937 471.008 58.6735 469.326 59.1032L467.36 56.4368L462.547 58.2332L462.818 61.5325C461.265 62.3176 459.783 63.2362 458.389 64.278L455.542 62.5832L451.791 66.0745L453.305 69.0348C452.165 70.3502 451.144 71.7643 450.254 73.2605L446.989 72.7633L444.865 77.4523L447.43 79.5651C446.909 81.2207 446.53 82.918 446.3 84.6383L443.068 85.4405L442.91 90.5701L446.062 91.5869C446.192 93.3245 446.468 95.048 446.887 96.7391L444.221 98.6938L446.029 103.507L449.328 103.258C450.081 104.799 450.958 106.277 451.949 107.676L450.243 110.512L453.757 114.263L456.694 112.761C458.018 113.887 459.431 114.904 460.92 115.8L460.434 119.065L465.112 121.201L467.259 118.692C468.917 119.203 470.613 119.581 472.332 119.822L473.134 123.031L478.264 123.212L479.292 120.06C481.022 119.928 482.739 119.648 484.421 119.224L486.387 121.879L491.2 120.082L490.941 116.783C492.49 115.997 493.968 115.078 495.358 114.037L498.273 115.777ZM471.541 94.163C470.553 93.1069 469.901 91.7815 469.666 90.3544C469.432 88.9274 469.626 87.4629 470.224 86.1462C470.822 84.8295 471.797 83.7198 473.026 82.9574C474.255 82.1951 475.682 81.8143 477.127 81.8633C478.573 81.9123 479.971 82.3889 481.145 83.2328C482.32 84.0767 483.218 85.25 483.725 86.6042C484.233 87.9583 484.327 89.4326 483.996 90.8405C483.666 92.2483 482.925 93.5265 481.868 94.5133C481.167 95.1693 480.344 95.6807 479.446 96.0182C478.547 96.3557 477.591 96.5126 476.632 96.4801C475.672 96.4476 474.729 96.2262 473.856 95.8286C472.982 95.431 472.195 94.865 471.541 94.163Z" fill="#EFF2FF"/>
<path d="M361.558 268.208L349.875 260.141C348.732 255.934 347.157 251.856 345.175 247.972L348.169 236.222L331.221 218.065L319.29 220.257C315.547 217.999 311.583 216.129 307.46 214.675L300.207 202.461L275.35 201.603L267.282 213.285C263.068 214.462 258.983 216.063 255.091 218.065L243.341 215.071L225.195 232.019L227.376 243.927C225.131 247.676 223.283 251.648 221.862 255.78L209.648 263.033L208.801 287.891L220.495 295.969C221.623 300.198 223.195 304.296 225.184 308.194L222.201 319.911L239.149 338.057L251.001 335.887C254.77 338.133 258.761 339.985 262.91 341.412L270.152 353.604L295.009 354.451L303.065 342.78C307.305 341.635 311.416 340.06 315.336 338.079L327.018 341.062L345.175 324.114L342.995 312.205C345.242 308.454 347.09 304.478 348.508 300.342L360.722 293.088L361.558 268.208ZM284.219 305.935C278.7 305.746 273.362 303.925 268.878 300.702C264.394 297.479 260.967 292.999 259.029 287.828C257.092 282.657 256.731 277.028 257.993 271.652C259.255 266.276 262.082 261.395 266.118 257.626C270.154 253.858 275.217 251.37 280.666 250.479C286.116 249.588 291.707 250.332 296.734 252.619C301.76 254.905 305.995 258.631 308.904 263.324C311.813 268.018 313.265 273.468 313.076 278.987C312.82 286.388 309.635 293.385 304.221 298.438C298.808 303.491 291.609 306.188 284.208 305.935H284.219Z" fill="#EFF2FF"/>
<path d="M388.161 197.727H388.082L368.513 197.06C368.117 197.049 367.731 196.94 367.388 196.743C367.045 196.546 366.756 196.266 366.547 195.93L361.27 187.05C358.427 186.013 355.675 184.74 353.045 183.242L344.605 184.756C344.212 184.828 343.807 184.799 343.427 184.673C343.048 184.547 342.707 184.326 342.436 184.033L329.069 169.729C328.79 169.432 328.591 169.068 328.492 168.673C328.393 168.277 328.397 167.863 328.504 167.469L330.64 159.097C329.319 156.383 328.237 153.559 327.408 150.657L318.901 144.781C318.572 144.553 318.306 144.247 318.126 143.89C317.947 143.532 317.859 143.136 317.872 142.736L318.539 123.167C318.55 122.771 318.659 122.385 318.857 122.042C319.054 121.699 319.333 121.41 319.669 121.201L328.561 115.913C329.588 113.08 330.863 110.343 332.369 107.733L330.809 99.2138C330.737 98.8205 330.766 98.4155 330.892 98.0362C331.019 97.657 331.239 97.3158 331.532 97.0444L345.825 83.7233C346.122 83.4437 346.486 83.245 346.881 83.146C347.277 83.0471 347.691 83.0514 348.085 83.1583L356.491 85.3051C359.199 83.9826 362.015 82.8939 364.909 82.0511L370.784 73.5545C371.002 73.2165 371.307 72.943 371.667 72.7623C372.026 72.5815 372.427 72.5001 372.829 72.5263L392.387 73.1929C392.783 73.2063 393.171 73.3162 393.515 73.5131C393.86 73.71 394.151 73.9879 394.364 74.3228L399.641 83.2148C402.462 84.2523 405.191 85.526 407.798 87.0225L416.34 85.4633C416.733 85.3902 417.138 85.4183 417.518 85.5447C417.897 85.6712 418.239 85.892 418.509 86.1864L431.83 100.558C432.11 100.855 432.309 101.219 432.408 101.614C432.506 102.01 432.502 102.425 432.395 102.818L430.249 111.224C431.572 113.932 432.661 116.748 433.503 119.642L441.999 125.415C442.329 125.642 442.596 125.948 442.776 126.306C442.956 126.663 443.042 127.061 443.027 127.46L442.361 147.03C442.347 147.426 442.237 147.814 442.041 148.158C441.844 148.503 441.566 148.794 441.231 149.007L432.339 154.284C431.306 157.114 430.033 159.851 428.531 162.464L430.09 170.983C430.162 171.376 430.134 171.781 430.007 172.16C429.881 172.54 429.661 172.881 429.367 173.152L415.063 186.507C414.769 186.792 414.406 186.994 414.01 187.096C413.614 187.197 413.198 187.192 412.803 187.084L404.488 184.959C401.763 186.277 398.932 187.362 396.025 188.202L390.161 196.699C389.937 197.02 389.637 197.282 389.289 197.461C388.94 197.64 388.553 197.731 388.161 197.727ZM369.982 192.337L386.93 192.914L392.579 184.779C392.899 184.311 393.376 183.974 393.923 183.83C397.104 182.969 400.189 181.788 403.132 180.304C403.643 180.051 404.229 179.991 404.781 180.135L412.69 182.157L425.119 170.576L423.695 162.464C423.585 161.893 423.69 161.301 423.989 160.803C425.667 158.001 427.049 155.032 428.113 151.945C428.296 151.39 428.673 150.921 429.175 150.623L437.683 145.572L438.259 128.624L430.124 122.975C429.698 122.68 429.377 122.256 429.209 121.766C429.209 121.709 429.209 121.642 429.209 121.574C428.346 118.43 427.165 115.382 425.684 112.478C425.422 111.961 425.358 111.367 425.503 110.806L427.537 102.807L415.865 90.3895L407.742 91.8809C407.173 91.9856 406.586 91.877 406.092 91.5759C403.286 89.9025 400.318 88.517 397.234 87.4405C397.056 87.3799 396.886 87.3004 396.726 87.2033C396.397 87.0038 396.125 86.7238 395.935 86.3898L390.929 77.961L373.981 77.3847L368.332 85.5198C367.996 86.0008 367.499 86.3456 366.931 86.4915C363.784 87.3513 360.733 88.5287 357.824 90.0053C357.312 90.267 356.721 90.3313 356.163 90.1861L348.13 88.1298L335.702 99.7109L337.193 107.812C337.281 108.323 337.206 108.849 336.978 109.315L336.865 109.507C335.187 112.312 333.805 115.285 332.741 118.376C332.552 118.909 332.185 119.359 331.702 119.653L323.194 124.704L322.618 141.652L330.764 147.301C331.229 147.619 331.565 148.091 331.713 148.634C332.56 151.807 333.738 154.882 335.227 157.809C335.308 157.971 335.372 158.142 335.419 158.317C335.503 158.689 335.503 159.075 335.419 159.447L333.385 167.413L344.966 179.841L353.034 178.361C353.597 178.258 354.179 178.362 354.672 178.655C357.497 180.33 360.484 181.715 363.587 182.79C364.143 182.969 364.614 183.347 364.909 183.852L369.982 192.337ZM380.455 170.904H379.201C369.809 170.738 360.862 166.87 354.308 160.14C347.753 153.411 344.122 144.365 344.205 134.971C344.288 125.578 348.077 116.597 354.749 109.984C361.421 103.37 370.434 99.6599 379.828 99.6599C389.222 99.6599 398.236 103.37 404.908 109.984C411.579 116.597 415.369 125.578 415.452 134.971C415.534 144.365 411.903 153.411 405.349 160.14C398.795 166.87 389.848 170.738 380.455 170.904ZM380.455 104.14C372.335 104.282 364.598 107.625 358.93 113.443C353.263 119.261 350.122 127.082 350.193 135.204C350.264 143.326 353.54 151.091 359.308 156.809C365.077 162.527 372.87 165.736 380.992 165.736C389.114 165.736 396.908 162.527 402.676 156.809C408.444 151.091 411.72 143.326 411.791 135.204C411.862 127.082 408.722 119.261 403.054 113.443C397.386 107.625 389.65 104.282 381.529 104.14H380.455Z" fill="#EFF2FF"/>
<path d="M433.235 56.9118L425.122 54.7312L422.953 46.63L426.128 43.4551L429.472 50.3925L436.41 53.7369L433.235 56.9118Z" fill="#E0E0E0"/>
<path d="M433.735 51.4883C434.407 50.7718 434.774 49.8224 434.758 48.8404C434.743 47.8584 434.347 46.9208 433.653 46.2256C432.959 45.5305 432.023 45.1321 431.041 45.1148C430.059 45.0974 429.108 45.4624 428.391 46.1327L432.424 40.0879L437.825 42.8222L439.011 48.4715L433.735 51.4883Z" fill="#E0E0E0"/>
<path d="M425.484 44.0652L431.427 38.1221L439.517 40.3366L441.698 48.4378L435.755 54.3809L427.654 52.2002L425.484 44.0652ZM436.275 48.9236C436.804 48.3941 437.164 47.7197 437.309 46.9855C437.455 46.2514 437.38 45.4906 437.093 44.7992C436.807 44.1077 436.322 43.5168 435.699 43.1011C435.077 42.6853 434.345 42.4635 433.597 42.4635C432.848 42.4635 432.117 42.6853 431.494 43.1011C430.872 43.5168 430.387 44.1077 430.1 44.7992C429.814 45.4906 429.738 46.2514 429.884 46.9855C430.03 47.7197 430.39 48.3941 430.919 48.9236C431.629 49.6306 432.588 50.0304 433.59 50.0367C434.592 50.043 435.556 49.6555 436.275 48.9575V48.9236Z" fill="#F0F0F0"/>
<path d="M101.94 273.145L106.29 271.981L107.454 267.631L105.759 265.937L103.963 269.654L100.234 271.45L101.94 273.145Z" fill="#E0E0E0"/>
<path d="M101.685 270.241C101.476 270.058 101.306 269.834 101.187 269.582C101.068 269.33 101.002 269.057 100.993 268.779C100.983 268.5 101.031 268.223 101.134 267.964C101.236 267.705 101.39 267.47 101.587 267.273C101.784 267.076 102.019 266.922 102.278 266.82C102.537 266.718 102.814 266.669 103.092 266.679C103.371 266.688 103.644 266.754 103.896 266.873C104.147 266.993 104.372 267.162 104.555 267.372L102.397 264.129L99.4257 265.586L98.793 268.637L101.685 270.241Z" fill="#E0E0E0"/>
<path d="M106.092 266.276L102.906 263.09L98.5556 264.22L97.4258 268.57L100.555 271.79L104.905 270.66L106.092 266.276ZM100.307 268.909C100.022 268.625 99.827 268.262 99.7478 267.867C99.6686 267.473 99.7084 267.063 99.8621 266.691C100.016 266.319 100.276 266.001 100.611 265.777C100.946 265.553 101.339 265.434 101.742 265.434C102.144 265.434 102.538 265.553 102.873 265.777C103.207 266.001 103.468 266.319 103.622 266.691C103.775 267.063 103.815 267.473 103.736 267.867C103.657 268.262 103.462 268.625 103.177 268.909C102.794 269.285 102.279 269.497 101.742 269.497C101.205 269.497 100.69 269.285 100.307 268.909Z" fill="#F0F0F0"/>
<path d="M86.2747 34.6982L89.8903 38.3025C90.1127 38.5252 90.3769 38.7019 90.6677 38.8225C90.9585 38.943 91.2703 39.0051 91.5851 39.0051C91.8999 39.0051 92.2116 38.943 92.5024 38.8225C92.7932 38.7019 93.0574 38.5252 93.2799 38.3025C93.7242 37.8503 93.9733 37.2417 93.9733 36.6077C93.9733 35.9737 93.7242 35.365 93.2799 34.9129L89.6756 31.2973C89.222 30.8556 88.6139 30.6084 87.9808 30.6084C87.3477 30.6084 86.7396 30.8556 86.286 31.2973C85.8394 31.7499 85.5881 32.3596 85.586 32.9954C85.5838 33.6313 85.8311 34.2426 86.2747 34.6982Z" fill="#F0F0F0"/>
<path d="M83.7324 25.7047C84.3694 25.4484 85.0508 25.3209 85.7372 25.3295C86.4237 25.3381 87.1017 25.4826 87.732 25.7547C88.3623 26.0268 88.9325 26.4211 89.4096 26.9148C89.8867 27.4084 90.2612 27.9918 90.5116 28.631C90.9078 29.9448 90.7845 31.3606 90.1672 32.5862C89.5499 33.8117 88.4858 34.7536 87.1943 35.2174C85.9028 35.6813 84.4826 35.6317 83.2266 35.0789C81.9707 34.5261 80.9748 33.5122 80.4445 32.2466C80.0186 30.943 80.1252 29.5238 80.741 28.2984C81.3569 27.073 82.4321 26.1407 83.7324 25.7047Z" fill="#E0E0E0"/>
<path d="M79.8009 31.6389L80.3242 33.0957L91.0639 29.2376L90.5406 27.7809L79.8009 31.6389Z" fill="#F0F0F0"/>
<path d="M282.471 421C403.46 421 501.541 415.274 501.541 408.21C501.541 401.146 403.46 395.42 282.471 395.42C161.483 395.42 63.4023 401.146 63.4023 408.21C63.4023 415.274 161.483 421 282.471 421Z" fill="#F5F5F5"/>
<path d="M97.9827 74.2212C96.8378 69.2498 97.3424 65.0617 99.4967 61.6571C101.651 58.2524 105.195 55.9927 110.129 54.8779C115.198 53.7254 119.416 54.2 122.783 56.3015C126.15 58.4031 128.41 61.9056 129.562 66.8093C130.36 69.808 130.426 72.9544 129.754 75.9838C129.084 78.5044 127.676 80.767 125.71 82.4805C123.402 84.4282 120.631 85.7475 117.665 86.3108C114.757 87.0768 111.715 87.181 108.762 86.6159C106.197 85.9876 103.876 84.6111 102.095 82.6613C99.9895 80.2696 98.5686 77.3536 97.9827 74.2212ZM107.406 72.131C108.106 75.2042 109.18 77.2831 110.626 78.3678C111.373 78.8667 112.213 79.209 113.095 79.374C113.978 79.5391 114.885 79.5234 115.762 79.3281C116.638 79.1327 117.466 78.7617 118.195 78.2373C118.924 77.713 119.54 77.0463 120.004 76.2776C120.817 74.7071 120.829 72.2213 120.06 68.8091C119.405 65.9393 118.343 63.9846 116.885 62.9225C116.15 62.3945 115.305 62.0381 114.413 61.8797C113.522 61.7214 112.606 61.765 111.733 62.0073C110.86 62.1709 110.035 62.5304 109.321 63.0588C108.606 63.5872 108.021 64.2707 107.609 65.058C106.773 66.6624 106.694 69.0238 107.406 72.131Z" fill="#1B2B7C"/>
<path d="M133.989 70.4922C133.598 68.9626 133.532 67.3679 133.794 65.8111C134.057 64.2542 134.643 62.7697 135.515 61.4532C136.503 60.0456 137.759 58.8469 139.211 57.9259C140.663 57.0049 142.283 56.3798 143.977 56.0864C148.399 55.077 152.03 55.6005 154.869 57.6569C157.259 59.5095 158.884 62.1766 159.434 65.1499C159.984 68.1233 159.421 71.1951 157.852 73.7801C156.09 76.4617 153.22 78.2544 149.243 79.1583C146.177 80.004 142.912 79.7399 140.023 78.4126C138.471 77.6522 137.117 76.5404 136.07 75.1655C135.023 73.7906 134.31 72.1905 133.989 70.4922ZM142.475 68.5488C142.689 70.1215 143.449 71.5689 144.621 72.6389C145.088 72.9971 145.628 73.2486 146.202 73.3755C146.777 73.5024 147.372 73.5018 147.947 73.3736C148.521 73.2453 149.06 72.9927 149.526 72.6335C149.992 72.2742 150.374 71.8171 150.644 71.2944C151.235 69.7807 151.291 68.1101 150.802 66.5602C150.564 65.0184 149.802 63.6057 148.644 62.5605C148.194 62.1961 147.667 61.9403 147.103 61.813C146.538 61.6856 145.952 61.6901 145.39 61.8261C144.803 61.9452 144.251 62.1977 143.776 62.564C143.302 62.9304 142.919 63.4008 142.655 63.9389C142.058 65.4072 141.994 67.0383 142.475 68.5488Z" fill="#1B2B7C"/>
<path d="M167.879 83.1697L160.953 52.6633L168.862 50.8555L169.608 54.1208C170.163 52.8168 170.973 51.6374 171.992 50.6521C173.107 49.7059 174.438 49.05 175.867 48.7427C177.188 48.3834 178.578 48.3627 179.909 48.6826C181.24 49.0025 182.469 49.6527 183.483 50.573C185.716 52.6606 187.231 55.4015 187.81 58.403C188.646 62.0751 188.398 65.0805 187.087 67.442C186.465 68.5724 185.604 69.5535 184.564 70.3166C183.524 71.0797 182.33 71.6063 181.065 71.8598C179.848 72.1598 178.584 72.2098 177.347 72.0066C176.15 71.8121 175.01 71.3611 174.003 70.6847L176.398 81.2264L167.879 83.1697ZM171.958 61.8717C172.175 63.2989 172.902 64.5993 174.003 65.5325C174.436 65.8599 174.937 66.0865 175.468 66.196C176 66.3055 176.549 66.2949 177.076 66.1652C177.566 66.0651 178.026 65.8515 178.418 65.5414C178.811 65.2314 179.125 64.8336 179.336 64.38C179.814 62.9694 179.814 61.4407 179.336 60.03C179.134 58.6014 178.448 57.2853 177.393 56.3015C177.005 55.9797 176.549 55.7512 176.059 55.6337C175.569 55.5161 175.059 55.5127 174.568 55.6236C174.049 55.7328 173.562 55.9584 173.143 56.2833C172.725 56.6082 172.385 57.0239 172.15 57.4991C171.583 58.8908 171.515 60.4357 171.958 61.8717Z" fill="#1B2B7C"/>
<path d="M191.436 62.5381L199.661 59.8829C200.102 60.6752 200.782 61.3078 201.605 61.6907C202.458 61.9801 203.379 62.0077 204.248 61.7698C205.22 61.6097 206.109 61.1235 206.768 60.3914C206.956 60.1925 207.093 59.9505 207.166 59.6865C207.239 59.4225 207.246 59.1446 207.186 58.8773C207.106 58.5854 206.942 58.3231 206.716 58.1224C206.489 57.9218 206.209 57.7915 205.909 57.7475C204.633 57.6073 203.344 57.6073 202.068 57.7475C199.924 57.9177 197.771 57.9177 195.628 57.7475C194.372 57.561 193.196 57.02 192.238 56.1882C191.227 55.3496 190.527 54.1957 190.249 52.9116C189.909 51.5524 190.057 50.1167 190.667 48.8554C191.333 47.5469 192.355 46.4539 193.616 45.7031C195.423 44.6889 197.38 43.9681 199.413 43.5676C201.357 43.0458 203.366 42.8024 205.378 42.8445C206.642 42.9299 207.866 43.3174 208.949 43.9744C210.097 44.75 211.074 45.7538 211.818 46.9233L203.909 49.5446C203.62 48.9512 203.127 48.4819 202.52 48.2227C201.697 47.9241 200.803 47.8808 199.955 48.0984C199.21 48.2126 198.519 48.5562 197.978 49.0814C197.808 49.266 197.686 49.4888 197.621 49.7307C197.556 49.9726 197.551 50.2266 197.605 50.4711C197.667 50.7376 197.809 50.9791 198.01 51.1644C198.211 51.3498 198.464 51.4704 198.735 51.5106C199.998 51.6572 201.275 51.6306 202.531 51.4315C204.71 51.1193 206.919 51.0851 209.107 51.3298C210.482 51.5324 211.769 52.1289 212.813 53.0472C213.737 53.8728 214.387 54.9607 214.677 56.1656C214.967 57.4926 214.861 58.8755 214.372 60.1428C213.775 61.6513 212.735 62.9434 211.389 63.8487C209.403 65.135 207.184 66.0216 204.859 66.4587C200.859 67.3476 197.857 67.4154 195.854 66.6621C193.898 65.919 192.311 64.4383 191.436 62.5381Z" fill="#1B2B7C"/>
<path d="M219.027 34.585H228.304V41.7031L226.597 56.0185H220.858L219.027 41.7257V34.585ZM219.479 58.1879H228.134V65.8371L219.479 65.8936V58.1879Z" fill="#1B2B7C"/>
<path d="M145.396 131.776C145.33 131.792 145.26 131.792 145.193 131.776C140.109 129.81 137.069 127.889 135.488 125.573C134.249 125.808 132.968 125.633 131.838 125.076C130.514 124.428 129.416 123.396 128.686 122.116C128.302 122.41 127.85 122.603 127.372 122.676C126.894 122.749 126.406 122.7 125.952 122.534C124.559 122.013 123.371 121.058 122.562 119.811C122.051 120.177 121.426 120.349 120.799 120.297C117.41 120.025 112.89 113.337 112.563 106.207C112.559 106.058 112.614 105.913 112.715 105.804C112.816 105.694 112.956 105.628 113.105 105.62C113.179 105.617 113.253 105.628 113.323 105.654C113.393 105.679 113.457 105.719 113.511 105.769C113.566 105.819 113.61 105.88 113.641 105.947C113.672 106.015 113.69 106.088 113.692 106.162C114.009 112.941 118.336 118.963 120.901 119.167C121.088 119.186 121.278 119.168 121.458 119.114C121.638 119.059 121.806 118.97 121.952 118.85C121.068 117.242 120.513 115.473 120.319 113.648C120.125 111.822 120.296 109.977 120.822 108.218C121.794 104.829 122.652 103.495 123.692 103.699C125.635 104.185 125.375 111.608 124.347 116.455C124.191 117.329 123.869 118.165 123.398 118.918C124.068 120.032 125.072 120.906 126.268 121.415C126.587 121.537 126.935 121.564 127.269 121.494C127.604 121.424 127.911 121.259 128.155 121.02C127.273 118.839 127.025 115.856 128.29 112.048C129.872 107.043 130.55 106.908 130.9 106.828C131.032 106.801 131.169 106.809 131.296 106.853C131.423 106.897 131.537 106.974 131.623 107.077C132.674 108.207 131.42 116.026 130.109 119.878C129.958 120.338 129.745 120.775 129.477 121.178C130.076 122.405 131.065 123.398 132.29 124.002C133.089 124.395 133.978 124.566 134.866 124.5C134.764 124.285 134.674 124.059 134.584 123.844C133.691 121.415 134.132 118.613 135.928 115.28C137.115 113.02 138.086 112.037 138.99 112.037C139.23 112.04 139.464 112.112 139.664 112.244C139.865 112.377 140.023 112.564 140.12 112.783C141.103 114.602 140.391 120.602 138.448 123.573C138 124.264 137.366 124.812 136.617 125.155C138.131 127.143 141.013 128.906 145.656 130.68C145.731 130.693 145.801 130.721 145.865 130.762C145.928 130.803 145.983 130.855 146.026 130.917C146.069 130.979 146.099 131.049 146.115 131.123C146.132 131.196 146.133 131.272 146.12 131.347C146.106 131.421 146.078 131.492 146.038 131.555C145.997 131.618 145.944 131.673 145.882 131.716C145.82 131.759 145.751 131.79 145.677 131.806C145.603 131.822 145.527 131.823 145.453 131.81L145.396 131.776ZM138.979 113.167C138.979 113.167 138.335 113.167 136.911 115.822C135.273 118.85 134.855 121.347 135.634 123.449C135.731 123.708 135.844 123.961 135.973 124.206C136.583 123.949 137.103 123.517 137.465 122.963C139.047 120.545 139.804 115.574 139.216 113.63C139.137 113.235 138.979 113.167 138.979 113.167ZM130.9 108.467C130.289 109.753 129.782 111.087 129.386 112.455C128.52 114.823 128.371 117.393 128.957 119.845L129.059 119.562C130.233 115.979 130.854 112.237 130.9 108.467ZM123.466 104.908C123.274 105.077 122.72 105.789 121.94 108.546C121.018 111.64 121.309 114.969 122.754 117.856C122.986 117.351 123.157 116.82 123.262 116.274C124.437 110.727 124.099 105.653 123.466 104.851V104.908Z" fill="#263238"/>
<path d="M188.353 190.947C186.548 190.968 184.77 190.508 183.201 189.614C183.072 189.537 182.979 189.411 182.941 189.266C182.903 189.12 182.923 188.965 182.998 188.835C183.034 188.77 183.083 188.713 183.142 188.668C183.2 188.622 183.267 188.589 183.339 188.57C183.411 188.551 183.485 188.547 183.559 188.557C183.632 188.568 183.703 188.593 183.766 188.631C187.8 191.004 193.008 189.354 194.082 187.626C194.159 187.517 194.213 187.394 194.242 187.264C194.271 187.134 194.274 187 194.251 186.869C192.187 186.982 190.146 186.397 188.455 185.208C185.574 183.411 185.348 182.88 185.37 182.451C185.376 182.327 185.415 182.208 185.482 182.104C185.55 182.001 185.644 181.918 185.755 181.863C186.884 181.287 191.98 183.637 194.104 185.038C194.362 185.204 194.597 185.401 194.805 185.626C195.642 185.437 196.396 184.981 196.952 184.326C197.269 183.962 197.497 183.529 197.618 183.061H197.392C195.584 183.242 193.777 182.462 191.845 180.677C190.511 179.457 190.003 178.609 190.172 177.943C190.224 177.754 190.328 177.585 190.472 177.453C190.616 177.321 190.794 177.232 190.986 177.197C192.545 176.813 196.409 178.451 197.98 180.18C198.33 180.56 198.579 181.022 198.703 181.524C200.183 180.824 201.742 179.265 203.584 176.7C203.627 176.639 203.681 176.587 203.744 176.547C203.807 176.507 203.878 176.48 203.951 176.467C204.025 176.455 204.1 176.457 204.173 176.473C204.245 176.49 204.314 176.521 204.375 176.564C204.496 176.652 204.578 176.784 204.603 176.932C204.628 177.08 204.595 177.231 204.51 177.355C202.375 180.338 200.59 182.021 198.805 182.711C198.714 183.546 198.371 184.335 197.822 184.97C197.171 185.73 196.316 186.287 195.358 186.575C195.412 186.844 195.412 187.122 195.358 187.392C195.303 187.661 195.196 187.917 195.042 188.145C194.093 189.817 191.359 190.947 188.353 190.947ZM187.348 183.117C187.732 183.4 188.274 183.773 189.054 184.247C190.271 185.063 191.666 185.574 193.121 185.739C191.301 184.664 189.364 183.8 187.348 183.163V183.117ZM191.291 178.315C191.616 178.927 192.066 179.462 192.613 179.886C194.285 181.434 195.81 182.146 197.279 181.965L197.641 181.908C197.558 181.562 197.386 181.243 197.144 180.982C195.562 179.287 192.082 178.18 191.291 178.361V178.315Z" fill="#263238"/>
<path d="M203.312 189.445L185.709 192.642L169.722 105.405L135.758 111.574L80.3945 209.873L86.3376 242.311L157.35 229.363L162.208 255.904L196.172 249.723L191.313 223.194L208.916 219.996L203.312 189.445ZM114.223 205.636L143.599 154.148L151.745 198.857L114.223 205.636Z" fill="#EE3F59"/>
<path d="M345.101 99.4283C344.567 93.9436 343.352 88.5466 341.486 83.3616C339.568 78.3937 336.901 73.7488 333.577 69.5885C329.644 64.7466 324.76 60.7627 319.227 57.8831C313.201 54.5688 305.21 52.2639 295.252 50.9683C274.575 48.2792 258.463 51.9475 246.916 61.9732C235.369 71.9989 227.761 91.2067 224.093 119.596C222.628 130.208 222.25 140.94 222.963 151.628C223.716 161.42 225.516 169.303 228.364 175.276C231.977 183.375 237.707 190.351 244.95 195.467C252.083 200.476 261.875 203.79 274.327 205.41C296.457 208.295 312.866 204.043 323.555 192.654C334.243 181.265 341.324 162.019 344.796 134.917C346.338 123.144 346.44 111.227 345.101 99.4283Z" fill="#EE3F59"/>
<path d="M284.47 193.75C281.747 193.659 278.821 193.411 275.872 193.027C265.523 191.671 257.523 189.061 252.077 185.242C246.646 181.402 242.352 176.168 239.649 170.09L239.592 169.977C237.423 165.458 235.999 158.961 235.378 150.77C234.719 140.93 235.068 131.049 236.417 121.28C240.462 89.9261 248.789 76.831 255.06 71.4076C262.382 65.0577 272.268 62.1879 285.261 62.6398C287.928 62.7302 290.752 62.9675 293.656 63.3403C301.995 64.4702 308.604 66.278 313.282 68.8315C317.321 70.9128 320.898 73.7873 323.801 77.2829C326.333 80.4493 328.371 83.9806 329.846 87.7568C331.347 91.974 332.318 96.3614 332.738 100.818C333.948 111.627 333.838 122.542 332.41 133.324C329.281 157.662 323.225 174.757 314.423 184.168C307.892 191.14 298.097 194.337 284.47 193.829V193.75Z" fill="#263238"/>
<path d="M306.58 99.8016L306.727 95.5307L304.095 94.672C303.984 93.2198 303.749 91.7797 303.394 90.3672L305.654 88.7289L304.106 84.7405L301.349 84.9665C300.703 83.6723 299.947 82.4361 299.089 81.2718L300.547 78.8539L297.553 75.7015L295.09 76.9557C293.987 76.0118 292.808 75.1614 291.565 74.4135L291.96 71.6792L288.051 69.9053L286.265 71.9956C284.883 71.5513 283.466 71.2225 282.029 71.0126L281.339 68.3461L277.046 68.1992L276.198 70.8318C274.75 70.9422 273.313 71.1765 271.905 71.5323L270.244 69.2726L266.222 70.7753L266.448 73.5322C265.157 74.1849 263.922 74.9406 262.753 75.7919L260.38 74.3683L257.239 77.2947L258.505 79.7691C257.555 80.8665 256.704 82.0462 255.963 83.2943L253.228 82.8875L251.443 86.7968L253.556 88.582C253.099 89.9618 252.766 91.3798 252.562 92.819L249.873 93.497L249.703 97.8582L252.336 98.7169C252.446 100.166 252.68 101.602 253.036 103.01L250.776 104.66L252.291 108.682L255.047 108.456C255.692 109.751 256.448 110.988 257.307 112.151L255.872 114.535L258.81 117.665L261.273 116.399C262.375 117.347 263.554 118.201 264.798 118.953L264.391 121.687L268.301 123.461L270.097 121.359C271.482 121.814 272.903 122.147 274.345 122.354L275.012 125.032L279.294 125.178L280.142 122.557C281.593 122.441 283.033 122.207 284.446 121.857L286.085 124.116L290.107 122.614L289.892 119.857C291.185 119.208 292.421 118.452 293.587 117.597L295.96 119.032L299.101 116.106L297.847 113.631C298.854 112.51 299.757 111.3 300.547 110.016L303.281 110.422L305.066 106.513L302.965 104.728C303.416 103.343 303.745 101.922 303.948 100.48L306.58 99.8016ZM277.656 113.676C274.309 113.554 271.074 112.443 268.358 110.484C265.643 108.524 263.568 105.805 262.397 102.667C261.226 99.5301 261.01 96.1162 261.778 92.8565C262.545 89.5968 264.261 86.6375 266.708 84.3521C269.156 82.0667 272.226 80.5576 275.53 80.0153C278.835 79.4731 282.226 79.9219 285.276 81.3052C288.325 82.6885 290.897 84.9443 292.666 87.7877C294.434 90.6312 295.321 93.935 295.214 97.282C295.055 101.783 293.117 106.037 289.825 109.11C286.534 112.184 282.157 113.826 277.656 113.676Z" fill="#EE3F59"/>
<path opacity="0.3" d="M324.41 178.417L324.726 175.536L322.986 174.824C322.983 173.844 322.899 172.865 322.737 171.898L324.308 170.892L323.506 168.102H321.63C321.257 167.195 320.807 166.322 320.286 165.492L321.348 163.955L319.54 161.695L317.811 162.407C317.108 161.721 316.352 161.09 315.551 160.52L315.969 158.69L313.427 157.289L312.094 158.633C311.188 158.254 310.25 157.956 309.292 157.741L308.976 155.899L306.094 155.571L305.383 157.3C304.402 157.316 303.423 157.407 302.456 157.571L301.451 155.978L298.66 156.792V158.678C297.754 159.054 296.881 159.504 296.05 160.023L294.513 158.893L292.254 160.712L292.977 162.441C292.288 163.142 291.657 163.898 291.09 164.701L289.259 164.294L287.87 166.836L289.203 168.158C288.824 169.068 288.526 170.009 288.31 170.971L286.457 171.276L286.152 174.158L287.881 174.881C287.883 175.858 287.97 176.833 288.141 177.796L286.548 178.801L287.361 181.592H289.248C289.628 182.494 290.081 183.363 290.604 184.191L289.474 185.727L291.282 187.987L293.033 187.253C293.734 187.942 294.49 188.573 295.293 189.14L294.875 190.97L297.417 192.371L298.739 191.038C299.648 191.406 300.585 191.701 301.541 191.919L301.869 193.761L304.75 194.088L305.45 192.36C306.435 192.343 307.417 192.252 308.388 192.089L309.394 193.682L312.173 192.857V190.981C313.081 190.603 313.958 190.154 314.794 189.637L316.308 190.767L318.568 188.948L317.834 187.219C318.53 186.518 319.168 185.762 319.743 184.959L321.562 185.366L322.963 182.824L321.63 181.502C321.993 180.596 322.284 179.663 322.5 178.711L324.41 178.417ZM309.868 177.287C309.397 178.17 308.674 178.892 307.791 179.362C306.909 179.832 305.906 180.029 304.911 179.927C303.916 179.826 302.974 179.43 302.204 178.792C301.435 178.153 300.873 177.299 300.59 176.34C300.307 175.381 300.315 174.359 300.615 173.405C300.915 172.45 301.491 171.607 302.272 170.982C303.052 170.356 304.001 169.977 304.998 169.893C305.995 169.809 306.994 170.023 307.868 170.508C309.025 171.152 309.883 172.224 310.257 173.494C310.631 174.764 310.491 176.131 309.868 177.299V177.287Z" fill="#EE3F59"/>
<path d="M340.42 129.596L337.03 127.269C336.697 126.059 336.243 124.885 335.675 123.766L336.533 120.377L331.652 115.145L328.263 115.778C327.19 115.133 326.054 114.599 324.873 114.185L322.783 110.66L315.631 110.411L313.303 113.801C312.094 114.13 310.92 114.581 309.801 115.145L306.411 114.287L301.18 119.168L301.813 122.557C301.166 123.629 300.632 124.765 300.219 125.947L296.706 128.037L296.457 135.189L299.847 137.517C300.175 138.736 300.629 139.917 301.202 141.042L300.344 144.431L305.225 149.663L308.614 149.03C309.685 149.678 310.822 150.212 312.004 150.623L314.083 154.137L321.246 154.374L323.562 150.985C324.782 150.648 325.967 150.194 327.099 149.629L330.489 150.488L335.72 145.595L335.098 142.206C335.743 141.133 336.277 139.997 336.691 138.816L340.205 136.726L340.42 129.596ZM318.128 140.466C316.538 140.411 314.999 139.886 313.707 138.957C312.416 138.028 311.428 136.737 310.87 135.247C310.312 133.757 310.208 132.135 310.572 130.586C310.936 129.037 311.751 127.631 312.914 126.545C314.078 125.459 315.537 124.743 317.107 124.486C318.677 124.23 320.288 124.445 321.737 125.104C323.185 125.763 324.405 126.837 325.243 128.19C326.081 129.542 326.499 131.113 326.444 132.703C326.367 134.834 325.449 136.848 323.89 138.303C322.331 139.758 320.259 140.536 318.128 140.466Z" fill="white"/>
<path d="M364.947 72.5032L365.535 71.0909C365.936 70.8735 366.315 70.6161 366.665 70.3226H367.975L369.512 68.0628L369.015 66.8539C369.209 66.4294 369.361 65.9866 369.467 65.5319L370.597 64.4812L370.122 61.8373L368.698 61.2497C368.478 60.8295 368.217 60.4321 367.919 60.0634V58.7527L365.716 57.2161L364.495 57.7133C364.047 57.5652 363.585 57.463 363.117 57.4082L362.077 56.2783L359.433 56.7529L358.835 58.1652C358.415 58.3865 358.018 58.6475 357.648 58.9448L356.349 58.8883L354.812 61.148L355.31 62.3457C355.159 62.7975 355.053 63.263 354.993 63.7354L353.863 64.7862L354.338 67.4301L355.761 68.0176C355.973 68.44 356.231 68.8378 356.53 69.204V70.5147L358.789 72.0513L359.998 71.5428C360.449 71.6988 360.915 71.8048 361.388 71.8592L362.428 72.9891L364.947 72.5032ZM359.298 65.1704C359.193 64.5808 359.266 63.9735 359.506 63.4252C359.747 62.8769 360.144 62.4121 360.649 62.0897C361.153 61.7673 361.742 61.6017 362.341 61.6139C362.939 61.6261 363.521 61.8154 364.012 62.158C364.503 62.5006 364.882 62.9811 365.1 63.5388C365.318 64.0964 365.365 64.7062 365.237 65.291C365.108 65.8758 364.809 66.4094 364.378 66.8243C363.946 67.2393 363.401 67.5169 362.812 67.6222C362.42 67.6922 362.018 67.6842 361.63 67.5989C361.241 67.5135 360.873 67.3523 360.547 67.1246C360.22 66.8969 359.942 66.6071 359.728 66.2718C359.514 65.9365 359.367 65.5622 359.298 65.1704Z" fill="#EE3F59"/>
<path d="M333.999 65.0127L333.129 64.2782C334.997 61.9692 337.3 60.0497 339.908 58.6289L340.439 59.6345C337.957 60.9829 335.768 62.811 333.999 65.0127Z" fill="#EE3F59"/>
<path d="M343.019 58.5835L342.578 57.5441C346.75 55.7309 351.313 55.0003 355.843 55.4199L355.73 56.5498C351.389 56.1351 347.014 56.8351 343.019 58.5835Z" fill="#EE3F59"/>
<path d="M340.884 66.4024L339.957 65.7584C342.683 62.089 346.644 59.5288 351.109 58.5498L351.323 59.6797C347.148 60.5915 343.441 62.9784 340.884 66.4024Z" fill="#EE3F59"/>
<path d="M265.907 175.129C265.754 175.129 265.608 175.068 265.5 174.96L263.139 172.519C261.934 172.406 260.743 172.183 259.579 171.852L255.885 173.491C255.803 173.535 255.712 173.559 255.619 173.559C255.527 173.559 255.435 173.535 255.354 173.491L249.162 169.389C249.083 169.336 249.019 169.263 248.975 169.178C248.932 169.093 248.911 168.999 248.914 168.903V164.881C248.158 163.936 247.492 162.922 246.925 161.853L243.75 160.621C243.662 160.589 243.584 160.535 243.522 160.463C243.461 160.392 243.419 160.307 243.4 160.215L241.931 152.938C241.91 152.845 241.914 152.749 241.942 152.658C241.97 152.567 242.02 152.484 242.089 152.419L244.53 150.057C244.645 148.854 244.865 147.663 245.185 146.498L243.558 142.803C243.513 142.72 243.49 142.627 243.49 142.532C243.49 142.438 243.513 142.345 243.558 142.261L247.659 136.081C247.711 136 247.783 135.933 247.869 135.888C247.954 135.842 248.049 135.819 248.145 135.821L252.168 135.889C253.113 135.129 254.126 134.46 255.196 133.889L256.427 130.725C256.46 130.637 256.514 130.559 256.585 130.497C256.656 130.436 256.742 130.394 256.834 130.375L264.11 128.895C264.203 128.877 264.299 128.883 264.389 128.91C264.48 128.938 264.562 128.987 264.63 129.053L266.991 131.494C268.199 131.607 269.394 131.831 270.562 132.16L274.245 130.533C274.329 130.489 274.422 130.465 274.516 130.465C274.611 130.465 274.704 130.489 274.787 130.533L280.968 134.635C281.047 134.686 281.113 134.756 281.158 134.839C281.204 134.922 281.227 135.015 281.228 135.109L281.16 139.143C281.916 140.086 282.586 141.095 283.16 142.159L286.323 143.391C286.412 143.425 286.491 143.482 286.552 143.555C286.613 143.628 286.655 143.715 286.674 143.809L288.154 151.085C288.17 151.178 288.164 151.274 288.137 151.364C288.109 151.455 288.061 151.537 287.996 151.605L285.544 153.967C285.431 155.17 285.211 156.361 284.888 157.526L286.515 161.22C286.56 161.302 286.583 161.393 286.583 161.486C286.583 161.579 286.56 161.67 286.515 161.751L282.47 167.943C282.417 168.02 282.347 168.083 282.264 168.126C282.181 168.169 282.089 168.192 281.996 168.192L277.962 168.135C277.016 168.884 276.007 169.55 274.946 170.124L273.714 173.299C273.679 173.387 273.622 173.465 273.549 173.526C273.476 173.587 273.389 173.63 273.296 173.649L266.02 175.118L265.907 175.129ZM259.546 170.689H259.704C260.924 171.044 262.177 171.275 263.444 171.378C263.581 171.388 263.709 171.449 263.805 171.547L266.065 173.92L272.731 172.564L273.929 169.48C273.981 169.353 274.077 169.248 274.2 169.186C275.326 168.598 276.39 167.898 277.375 167.096C277.424 167.048 277.482 167.012 277.547 166.991C277.612 166.969 277.68 166.963 277.748 166.971L281.668 167.028L285.419 161.379L283.838 157.774C283.792 157.65 283.792 157.514 283.838 157.39C284.189 156.169 284.42 154.916 284.527 153.65C284.543 153.515 284.602 153.388 284.696 153.289L287.069 151.029L285.724 144.363L282.64 143.165C282.51 143.113 282.402 143.017 282.335 142.894C281.751 141.765 281.051 140.701 280.245 139.719C280.166 139.615 280.122 139.488 280.12 139.357V135.425L274.471 131.674L270.889 133.256C270.761 133.296 270.623 133.296 270.494 133.256C269.27 132.899 268.013 132.664 266.743 132.556C266.606 132.545 266.477 132.485 266.381 132.386L264.122 130.025L257.455 131.369L256.269 134.454C256.221 134.58 256.129 134.685 256.009 134.748C254.878 135.338 253.811 136.042 252.823 136.849C252.721 136.933 252.593 136.977 252.461 136.973H248.541L244.778 142.623L246.36 146.216C246.396 146.29 246.415 146.371 246.415 146.453C246.415 146.535 246.396 146.616 246.36 146.69C246.026 147.887 245.807 149.113 245.705 150.351C245.696 150.485 245.635 150.611 245.535 150.701L243.163 152.961L244.518 159.627L247.592 160.825C247.728 160.877 247.841 160.978 247.908 161.107C248.488 162.232 249.185 163.292 249.987 164.271C250.073 164.371 250.117 164.501 250.111 164.633V168.553L255.761 172.316L259.353 170.734C259.415 170.708 259.48 170.693 259.546 170.689ZM265.093 167.039C262.374 167.037 259.706 166.297 257.373 164.9C255.04 163.502 253.129 161.499 251.844 159.102C250.558 156.705 249.947 154.005 250.073 151.288C250.2 148.572 251.06 145.94 252.563 143.673C254 141.499 255.977 139.735 258.301 138.553C260.624 137.371 263.215 136.813 265.819 136.933C268.423 137.052 270.951 137.846 273.156 139.235C275.362 140.625 277.169 142.563 278.401 144.86C279.633 147.157 280.247 149.735 280.184 152.341C280.122 154.947 279.384 157.492 278.042 159.727C276.701 161.962 274.803 163.811 272.533 165.093C270.263 166.374 267.7 167.045 265.093 167.039ZM253.512 144.295C251.993 146.59 251.188 149.285 251.2 152.038C251.212 154.79 252.04 157.478 253.579 159.76C255.118 162.042 257.299 163.817 259.847 164.86C262.394 165.902 265.194 166.167 267.892 165.619C270.589 165.07 273.064 163.735 275.002 161.781C276.941 159.826 278.257 157.341 278.783 154.639C279.31 151.937 279.023 149.14 277.96 146.601C276.897 144.062 275.105 141.895 272.81 140.374C271.289 139.355 269.58 138.648 267.784 138.293C265.987 137.938 264.138 137.944 262.343 138.308C260.548 138.673 258.844 139.39 257.328 140.417C255.812 141.445 254.515 142.763 253.512 144.295Z" fill="white"/>
<path d="M481.131 199.647L463.393 197.252L475.121 109.337L440.908 104.716L357.92 181.129L353.559 213.816L425.068 223.465L421.497 250.198L455.709 254.819L459.28 228.086L477.019 230.481L481.131 199.647ZM391.398 187.558L435.191 147.639L429.18 192.653L391.398 187.558Z" fill="#EE3F59"/>
<path d="M445.323 253.983H445.176C445.029 253.956 444.899 253.872 444.815 253.749C444.73 253.626 444.697 253.475 444.724 253.328L471.163 108.773C471.193 108.627 471.278 108.5 471.4 108.415C471.522 108.331 471.671 108.297 471.818 108.321C471.964 108.348 472.094 108.432 472.179 108.555C472.264 108.678 472.296 108.829 472.27 108.976L445.888 253.52C445.861 253.651 445.791 253.768 445.688 253.853C445.585 253.937 445.456 253.983 445.323 253.983Z" fill="#263238"/>
<path d="M468.705 111.201C468.701 111.323 468.672 111.443 468.622 111.553C468.571 111.664 468.499 111.764 468.41 111.847C468.321 111.93 468.216 111.994 468.102 112.036C467.988 112.079 467.866 112.098 467.745 112.094C467.499 112.085 467.267 111.979 467.1 111.799C466.932 111.618 466.843 111.379 466.852 111.133C466.861 110.888 466.967 110.656 467.148 110.488C467.328 110.321 467.567 110.232 467.813 110.241C467.934 110.245 468.054 110.274 468.165 110.324C468.275 110.375 468.375 110.447 468.458 110.536C468.541 110.625 468.605 110.73 468.648 110.844C468.69 110.958 468.71 111.08 468.705 111.201Z" fill="#263238"/>
<path d="M464.946 130.748C464.939 130.931 464.878 131.108 464.771 131.257C464.664 131.405 464.515 131.518 464.343 131.582C464.171 131.646 463.984 131.657 463.806 131.615C463.628 131.573 463.466 131.479 463.342 131.344C463.217 131.21 463.135 131.042 463.106 130.861C463.076 130.68 463.101 130.495 463.178 130.328C463.254 130.162 463.378 130.021 463.534 129.925C463.69 129.829 463.87 129.781 464.053 129.788C464.298 129.799 464.529 129.907 464.696 130.086C464.862 130.265 464.952 130.503 464.946 130.748Z" fill="#263238"/>
<path d="M461.184 150.273C461.178 150.456 461.117 150.633 461.009 150.781C460.902 150.929 460.753 151.043 460.581 151.106C460.41 151.17 460.223 151.182 460.045 151.139C459.866 151.097 459.705 151.003 459.58 150.869C459.455 150.735 459.373 150.566 459.344 150.386C459.315 150.205 459.34 150.019 459.416 149.853C459.492 149.686 459.616 149.546 459.772 149.45C459.928 149.353 460.109 149.306 460.292 149.312C460.413 149.316 460.533 149.345 460.644 149.395C460.755 149.446 460.854 149.518 460.937 149.607C461.02 149.696 461.085 149.801 461.127 149.915C461.169 150.029 461.189 150.151 461.184 150.273Z" fill="#263238"/>
<path d="M453.766 170.61C453.76 170.793 453.699 170.97 453.591 171.119C453.484 171.267 453.335 171.381 453.163 171.444C452.992 171.508 452.805 171.52 452.627 171.477C452.448 171.435 452.287 171.341 452.162 171.207C452.037 171.072 451.955 170.904 451.926 170.723C451.897 170.543 451.922 170.357 451.998 170.191C452.074 170.024 452.198 169.884 452.354 169.788C452.51 169.691 452.691 169.643 452.874 169.65C452.995 169.654 453.115 169.683 453.226 169.733C453.337 169.784 453.436 169.856 453.519 169.945C453.602 170.034 453.667 170.139 453.709 170.253C453.751 170.367 453.771 170.489 453.766 170.61Z" fill="#263238"/>
<path d="M453.647 189.389C453.642 189.51 453.614 189.63 453.563 189.741C453.512 189.851 453.44 189.951 453.351 190.034C453.262 190.117 453.157 190.181 453.043 190.224C452.929 190.266 452.808 190.286 452.686 190.281C452.565 190.277 452.445 190.249 452.334 190.198C452.224 190.147 452.124 190.075 452.041 189.986C451.958 189.897 451.894 189.792 451.851 189.678C451.809 189.564 451.789 189.443 451.794 189.321C451.798 189.199 451.826 189.08 451.877 188.969C451.928 188.858 452 188.759 452.089 188.676C452.178 188.593 452.283 188.528 452.397 188.486C452.511 188.443 452.632 188.424 452.754 188.428C452.876 188.433 452.995 188.461 453.106 188.512C453.217 188.563 453.316 188.635 453.399 188.724C453.482 188.813 453.547 188.917 453.589 189.032C453.631 189.146 453.651 189.267 453.647 189.389Z" fill="#263238"/>
<path d="M449.884 208.936C449.877 209.119 449.816 209.296 449.708 209.444C449.601 209.592 449.452 209.706 449.28 209.77C449.109 209.833 448.922 209.845 448.744 209.803C448.565 209.76 448.404 209.666 448.279 209.532C448.154 209.398 448.072 209.229 448.043 209.049C448.014 208.868 448.039 208.682 448.115 208.516C448.191 208.349 448.315 208.209 448.471 208.113C448.627 208.016 448.808 207.969 448.991 207.975C449.113 207.98 449.232 208.008 449.343 208.059C449.454 208.109 449.553 208.181 449.636 208.27C449.719 208.36 449.784 208.464 449.826 208.578C449.869 208.693 449.888 208.814 449.884 208.936Z" fill="#263238"/>
<path d="M446.123 228.482C446.119 228.603 446.09 228.723 446.04 228.834C445.989 228.944 445.917 229.044 445.828 229.127C445.739 229.21 445.634 229.274 445.52 229.317C445.406 229.359 445.284 229.379 445.163 229.374C445.042 229.371 444.922 229.344 444.812 229.295C444.701 229.245 444.601 229.174 444.518 229.086C444.435 228.998 444.37 228.894 444.328 228.78C444.285 228.667 444.266 228.546 444.27 228.425C444.273 228.302 444.3 228.182 444.35 228.069C444.4 227.957 444.472 227.856 444.561 227.772C444.651 227.688 444.756 227.623 444.871 227.58C444.986 227.536 445.108 227.517 445.231 227.521C445.475 227.533 445.706 227.64 445.873 227.819C446.039 227.999 446.129 228.237 446.123 228.482Z" fill="#263238"/>
<path d="M442.345 248.029C442.34 248.212 442.281 248.391 442.175 248.541C442.069 248.691 441.921 248.806 441.749 248.871C441.578 248.937 441.39 248.95 441.211 248.909C441.032 248.868 440.87 248.774 440.744 248.64C440.618 248.507 440.535 248.338 440.505 248.157C440.475 247.976 440.499 247.79 440.575 247.623C440.651 247.455 440.775 247.314 440.931 247.218C441.087 247.121 441.269 247.073 441.452 247.08C441.574 247.081 441.694 247.107 441.805 247.156C441.917 247.205 442.017 247.276 442.101 247.364C442.184 247.453 442.249 247.557 442.29 247.672C442.332 247.786 442.351 247.907 442.345 248.029Z" fill="#263238"/>
<path d="M452.846 171.175C452.718 171.175 452.595 171.131 452.496 171.051C452.397 170.971 452.329 170.859 452.303 170.734C452.287 170.662 452.285 170.586 452.297 170.513C452.31 170.439 452.337 170.369 452.377 170.306C452.417 170.243 452.469 170.188 452.53 170.146C452.591 170.103 452.66 170.072 452.733 170.056L455.535 169.458C455.609 169.442 455.685 169.441 455.76 169.455C455.834 169.469 455.905 169.498 455.969 169.539C456.032 169.581 456.087 169.634 456.13 169.697C456.173 169.759 456.203 169.83 456.218 169.904C456.234 169.978 456.235 170.055 456.221 170.129C456.207 170.204 456.178 170.275 456.137 170.338C456.095 170.402 456.042 170.456 455.979 170.499C455.917 170.542 455.846 170.572 455.772 170.588L452.97 171.186L452.846 171.175Z" fill="#263238"/>
<path d="M462.208 160.769C460.875 164.225 459.743 167.757 458.818 171.344C457.971 175.333 457.926 184.247 457.926 184.247" fill="#263238"/>
<path d="M457.928 184.813C457.778 184.813 457.635 184.753 457.529 184.647C457.423 184.541 457.363 184.398 457.363 184.248C457.363 183.886 457.431 175.209 458.278 171.22C459.199 167.606 460.331 164.048 461.668 160.566C461.721 160.427 461.827 160.315 461.962 160.253C462.098 160.192 462.252 160.187 462.391 160.238C462.461 160.264 462.525 160.304 462.58 160.356C462.634 160.407 462.678 160.468 462.709 160.537C462.739 160.605 462.756 160.679 462.757 160.754C462.759 160.828 462.746 160.903 462.719 160.972C461.389 164.4 460.257 167.9 459.329 171.458C458.504 175.356 458.448 184.169 458.437 184.259C458.437 184.398 458.385 184.533 458.291 184.635C458.197 184.738 458.067 184.801 457.928 184.813Z" fill="#263238"/>
<path d="M251.336 282.343C252.906 257.034 250.025 211.014 297.604 217.104C348.595 223.635 334.008 283.269 334.008 283.269L251.336 282.343Z" fill="#263238"/>
<path d="M284.173 267.135C295.642 267.135 304.94 257.837 304.94 246.368C304.94 234.898 295.642 225.601 284.173 225.601C272.704 225.601 263.406 234.898 263.406 246.368C263.406 257.837 272.704 267.135 284.173 267.135Z" fill="white"/>
<path d="M286.904 225.634C277.063 223.951 266.566 231.205 265.516 238.549L304.507 242.131C303.129 233.758 294.7 226.968 286.904 225.634Z" fill="#263238"/>
<path d="M300.062 245.848C299.78 251.271 296.82 255.531 293.453 255.362C290.086 255.192 287.577 250.65 287.803 245.193C288.029 239.736 291.046 235.499 294.413 235.668C297.78 235.837 300.333 240.425 300.062 245.848Z" fill="#263238"/>
<path d="M284.17 268.253C279.839 268.253 275.605 266.968 272.004 264.562C268.403 262.155 265.596 258.735 263.939 254.733C262.282 250.731 261.849 246.328 262.695 242.08C263.541 237.832 265.627 233.93 268.691 230.868C271.754 227.807 275.657 225.722 279.905 224.878C284.154 224.035 288.557 224.47 292.558 226.129C296.558 227.788 299.977 230.596 302.382 234.199C304.787 237.801 306.069 242.036 306.067 246.367C306.061 252.172 303.752 257.737 299.646 261.84C295.541 265.943 289.975 268.25 284.17 268.253ZM284.17 226.73C280.286 226.73 276.49 227.882 273.26 230.039C270.031 232.197 267.514 235.264 266.028 238.852C264.542 242.441 264.153 246.389 264.911 250.198C265.668 254.007 267.538 257.506 270.285 260.253C273.031 262.999 276.53 264.869 280.339 265.627C284.148 266.385 288.097 265.996 291.685 264.509C295.273 263.023 298.34 260.506 300.498 257.277C302.656 254.048 303.807 250.251 303.807 246.367C303.801 241.161 301.73 236.17 298.049 232.488C294.368 228.807 289.376 226.736 284.17 226.73Z" fill="#EE3F59"/>
<path opacity="0.3" d="M328.213 281.699H328.077C328.005 281.683 327.936 281.653 327.876 281.61C327.815 281.567 327.764 281.512 327.725 281.449C327.686 281.386 327.66 281.315 327.648 281.242C327.637 281.168 327.641 281.093 327.659 281.021C327.659 280.863 331.298 265.542 327.558 250.051C327.523 249.902 327.55 249.744 327.631 249.614C327.713 249.484 327.843 249.391 327.993 249.357C328.143 249.322 328.3 249.349 328.43 249.43C328.561 249.512 328.653 249.642 328.688 249.792C332.495 265.61 328.823 281.123 328.789 281.281C328.758 281.407 328.683 281.518 328.577 281.595C328.472 281.671 328.343 281.708 328.213 281.699Z" fill="white"/>
<path opacity="0.3" d="M325.059 241.577C324.949 241.576 324.842 241.544 324.75 241.484C324.658 241.423 324.585 241.338 324.54 241.238C323.133 238.139 321.333 235.234 319.184 232.595C319.088 232.478 319.043 232.328 319.057 232.177C319.072 232.027 319.146 231.888 319.263 231.792C319.38 231.697 319.53 231.651 319.681 231.666C319.831 231.681 319.969 231.755 320.065 231.872C322.272 234.592 324.121 237.584 325.568 240.775C325.6 240.841 325.618 240.914 325.622 240.988C325.626 241.062 325.615 241.135 325.59 241.205C325.564 241.275 325.525 241.338 325.475 241.392C325.425 241.447 325.364 241.49 325.297 241.521C325.222 241.555 325.141 241.574 325.059 241.577Z" fill="white"/>
<path d="M145.443 401.103H145.025C143.526 401.061 142.106 400.425 141.076 399.336C140.046 398.247 139.492 396.793 139.533 395.295C139.575 393.797 140.211 392.377 141.3 391.347C142.389 390.317 143.843 389.762 145.341 389.804H145.443C148.708 389.804 156.561 385.838 172.989 359.942C173.425 359.254 174.004 358.668 174.688 358.226C175.371 357.783 176.142 357.493 176.948 357.376C177.754 357.259 178.576 357.318 179.357 357.548C180.138 357.778 180.86 358.175 181.474 358.71C194.371 369.804 208.442 379.454 223.437 387.488C224.765 388.17 225.769 389.35 226.229 390.77C226.689 392.19 226.569 393.734 225.894 395.066C225.22 396.398 224.045 397.408 222.628 397.876C221.211 398.345 219.665 398.233 218.33 397.566C204.396 390.161 191.226 381.4 179.011 371.41C165.238 392.064 155.024 401.103 145.443 401.103Z" fill="#263238"/>
<path d="M180.406 357.66H179.92C179.479 357.596 179.055 357.446 178.673 357.218C178.29 356.991 177.956 356.69 177.689 356.333C177.423 355.977 177.229 355.571 177.119 355.139C177.01 354.708 176.986 354.259 177.05 353.818C177.852 348.169 176.858 327.131 169.729 310.747C169.412 310.023 169.359 309.212 169.578 308.453C169.796 307.693 170.273 307.034 170.926 306.59C186.405 296.048 219.375 294.782 220.776 294.737C221.221 294.722 221.665 294.795 222.082 294.952C222.499 295.109 222.881 295.346 223.206 295.65C223.531 295.954 223.793 296.32 223.977 296.725C224.161 297.131 224.264 297.569 224.278 298.014C224.293 298.459 224.22 298.903 224.064 299.32C223.907 299.737 223.67 300.119 223.366 300.444C223.061 300.769 222.696 301.031 222.29 301.215C221.885 301.399 221.447 301.502 221.002 301.516C220.697 301.516 191.874 302.646 177.073 310.781C183.377 327.097 184.812 347.434 183.762 354.846C183.625 355.636 183.213 356.352 182.599 356.868C181.985 357.383 181.208 357.663 180.406 357.66Z" fill="#263238"/>
<path d="M186.096 353.264C183.836 347.954 173.668 348.553 167.713 353.106C164.527 355.547 160.211 362.879 159.804 365.535C159.668 366.168 159.688 366.825 159.862 367.448C160.037 368.072 160.36 368.644 160.805 369.114C161.25 369.585 161.803 369.94 162.416 370.149C163.029 370.358 163.684 370.415 164.324 370.314C168.222 369.986 173.566 364.326 173.566 364.326C170.007 367.806 174.605 370.269 181.475 365.23C185.226 362.427 188.616 359.219 186.096 353.264Z" fill="#EE3F59"/>
<path d="M380.435 283.834H380.277C380.205 283.815 380.137 283.781 380.079 283.735C380.02 283.689 379.971 283.631 379.935 283.566C379.9 283.501 379.877 283.429 379.87 283.354C379.863 283.28 379.87 283.205 379.893 283.134C381.395 277.891 383.034 274.694 385.192 272.965C384.853 271.75 384.917 270.458 385.372 269.282C385.896 267.907 386.826 266.724 388.039 265.892C387.71 265.534 387.476 265.099 387.36 264.627C387.243 264.155 387.248 263.661 387.372 263.192C387.779 261.778 388.626 260.532 389.79 259.633C389.371 259.164 389.141 258.555 389.146 257.926C389.146 254.537 395.372 249.43 402.433 248.458C402.507 248.445 402.583 248.448 402.656 248.466C402.729 248.484 402.797 248.517 402.856 248.562C402.916 248.608 402.965 248.666 403.001 248.731C403.037 248.797 403.059 248.869 403.066 248.944C403.086 249.091 403.047 249.239 402.958 249.357C402.869 249.476 402.738 249.554 402.592 249.577C395.88 250.492 390.254 255.35 390.276 257.915C390.272 258.295 390.418 258.66 390.683 258.932C392.205 257.906 393.915 257.192 395.715 256.831C397.515 256.471 399.368 256.47 401.168 256.83C404.637 257.497 406.049 258.232 405.891 259.282C405.574 261.26 398.196 261.666 393.248 261.079C392.362 261.001 391.499 260.756 390.705 260.356C389.64 261.114 388.848 262.196 388.446 263.44C388.347 263.768 388.347 264.117 388.445 264.444C388.543 264.772 388.736 265.063 388.999 265.282C391.101 264.209 394.05 263.757 397.948 264.615C403.066 265.745 403.258 266.367 403.382 266.739C403.423 266.869 403.426 267.008 403.392 267.139C403.358 267.271 403.288 267.391 403.19 267.485C402.117 268.615 394.265 268.095 390.321 267.124C389.845 267.015 389.386 266.844 388.954 266.615C387.787 267.324 386.889 268.401 386.401 269.677C386.074 270.502 385.984 271.402 386.141 272.276C386.342 272.152 386.549 272.039 386.762 271.937C389.101 270.807 391.926 271.022 395.417 272.513C397.677 273.496 398.807 274.377 398.92 275.27C398.923 275.499 398.865 275.724 398.752 275.923C398.639 276.122 398.474 276.286 398.276 276.4C396.547 277.53 390.513 277.371 387.372 275.699C386.65 275.307 386.048 274.725 385.632 274.016C383.791 275.699 382.299 278.727 380.943 283.461C380.904 283.566 380.835 283.657 380.745 283.724C380.654 283.79 380.547 283.828 380.435 283.834ZM386.559 273.293C386.875 273.873 387.354 274.348 387.937 274.66C390.491 276.027 395.507 276.332 397.383 275.575C397.767 275.417 397.824 275.293 397.824 275.293C397.824 275.293 397.767 274.648 394.999 273.473C391.835 272.118 389.35 271.926 387.282 272.886C387.03 273.002 386.788 273.138 386.559 273.293ZM390.333 265.869L390.615 265.949C394.295 266.794 398.082 267.076 401.846 266.785C400.507 266.301 399.132 265.923 397.733 265.655C395.299 264.992 392.724 265.067 390.333 265.869ZM391.756 259.52C392.281 259.696 392.822 259.817 393.372 259.881C399.021 260.548 403.981 259.757 404.671 259.056C404.478 258.887 403.721 258.401 400.919 257.859C397.765 257.233 394.491 257.827 391.756 259.52Z" fill="#263238"/>
<path d="M233.35 399.182C234.096 398.934 233.847 398.222 233.011 398.222H217.713C188.585 395.138 168.236 399.273 181.06 400.245C193.884 401.216 180.156 401.013 170.79 404.561C161.423 408.108 240.446 408.99 247.62 404.561C254.219 400.471 223.023 402.482 233.35 399.182Z" fill="#263238"/>
<path d="M342.869 403.69L209.771 399.272L204.246 270.219L361.421 273.733L342.869 403.69Z" fill="#EE3F59"/>
<path d="M251.334 401.216C251.193 401.214 251.057 401.16 250.953 401.064C250.849 400.968 250.783 400.837 250.769 400.697L240.104 271.078C240.097 271.004 240.106 270.929 240.129 270.858C240.152 270.787 240.188 270.722 240.236 270.665C240.285 270.608 240.344 270.562 240.41 270.528C240.477 270.494 240.549 270.474 240.623 270.468C240.773 270.458 240.92 270.507 241.033 270.604C241.147 270.701 241.219 270.839 241.233 270.988L251.956 400.606C251.962 400.68 251.953 400.755 251.931 400.826C251.908 400.897 251.871 400.963 251.823 401.019C251.775 401.076 251.715 401.123 251.649 401.156C251.583 401.19 251.51 401.211 251.436 401.216H251.334Z" fill="#263238"/>
<path d="M342.879 403.691L378.65 398.234L389.915 278.242L361.431 273.733L342.879 403.691Z" fill="#EE3F59"/>
<path opacity="0.2" d="M342.879 403.691L378.65 398.234L389.915 278.242L361.431 273.733L342.879 403.691Z" fill="black"/>
<path d="M221.145 374.393L217.868 297.72C217.787 295.826 218.096 293.935 218.775 292.164C219.454 290.394 220.489 288.782 221.816 287.427C223.143 286.073 224.733 285.005 226.489 284.29C228.245 283.575 230.13 283.227 232.025 283.269L331.521 285.529C333.48 285.573 335.408 286.032 337.176 286.876C338.945 287.719 340.515 288.928 341.782 290.423C343.05 291.918 343.986 293.664 344.529 295.547C345.072 297.43 345.209 299.407 344.933 301.347L333.905 378.619C333.415 381.99 331.701 385.063 329.09 387.251C326.479 389.44 323.153 390.59 319.748 390.482L234.567 387.657C231.069 387.549 227.741 386.122 225.251 383.662C222.761 381.201 221.294 377.89 221.145 374.393Z" fill="#263238"/>
<path d="M231.896 306.805L247.284 307.291L247.16 311.256L237.522 310.951L237.432 313.912L246.369 314.194L246.245 317.979L237.308 317.697L237.195 321.357L247.104 321.674L246.968 325.888L231.297 325.402L231.896 306.805Z" fill="white"/>
<path d="M250.148 325.99L250.736 307.403L260.317 307.708C261.69 307.704 263.056 307.898 264.373 308.285C265.305 308.605 266.101 309.23 266.633 310.059C267.026 310.662 267.29 311.339 267.409 312.049C267.529 312.759 267.501 313.486 267.327 314.185C267.153 314.883 266.837 315.538 266.399 316.11C265.961 316.681 265.41 317.155 264.78 317.504C264.139 317.836 263.448 318.061 262.735 318.171C263.259 318.348 263.757 318.595 264.215 318.905C264.545 319.207 264.841 319.544 265.097 319.911C265.391 320.28 265.648 320.678 265.865 321.097L268.475 326.566L261.989 326.363L259.097 320.589C258.873 320.034 258.535 319.534 258.103 319.12C257.702 318.817 257.215 318.651 256.713 318.645H256.205L255.967 326.193L250.148 325.99ZM256.272 315.12L258.735 315.233C259.249 315.214 259.76 315.146 260.261 315.03C260.639 314.972 260.982 314.775 261.221 314.476C261.466 314.175 261.604 313.802 261.617 313.414C261.639 313.156 261.603 312.896 261.511 312.653C261.419 312.411 261.273 312.192 261.086 312.013C260.458 311.598 259.711 311.403 258.961 311.46L256.43 311.38L256.272 315.12Z" fill="white"/>
<path d="M270.352 326.633L270.939 308.047L280.509 308.341C281.882 308.338 283.249 308.536 284.565 308.928C285.499 309.245 286.296 309.871 286.825 310.702C287.397 311.604 287.666 312.665 287.593 313.73C287.599 314.634 287.359 315.522 286.899 316.3C286.439 317.078 285.777 317.717 284.983 318.148C284.339 318.473 283.65 318.697 282.938 318.815C283.461 318.986 283.956 319.234 284.407 319.549C284.745 319.846 285.045 320.184 285.3 320.554C285.596 320.922 285.854 321.32 286.068 321.741L288.678 327.209L282.193 327.006L279.3 321.232C279.072 320.68 278.734 320.18 278.306 319.764C277.902 319.459 277.411 319.292 276.905 319.289H276.408L276.159 326.837L270.352 326.633ZM276.464 315.753L278.893 315.832C279.407 315.812 279.918 315.744 280.419 315.628C280.793 315.568 281.131 315.371 281.368 315.075C281.621 314.778 281.761 314.402 281.763 314.013C281.788 313.755 281.754 313.495 281.664 313.253C281.574 313.01 281.43 312.791 281.243 312.612C280.613 312.194 279.862 311.999 279.108 312.058L276.588 311.979L276.464 315.753Z" fill="white"/>
<path d="M289.604 317.956C289.514 316.658 289.714 315.357 290.188 314.146C290.663 312.935 291.4 311.844 292.347 310.953C293.293 310.061 294.426 309.391 295.663 308.99C296.901 308.589 298.211 308.467 299.501 308.634C300.802 308.591 302.099 308.81 303.314 309.278C304.529 309.745 305.638 310.453 306.574 311.357C307.41 312.318 308.041 313.438 308.429 314.65C308.818 315.862 308.955 317.141 308.834 318.408C308.844 320.254 308.41 322.075 307.568 323.718C306.808 325.067 305.669 326.163 304.292 326.87C302.669 327.64 300.876 327.982 299.083 327.865C297.295 327.88 295.527 327.494 293.908 326.735C292.53 325.987 291.406 324.846 290.677 323.458C289.823 321.757 289.451 319.853 289.604 317.956ZM295.343 318.159C295.175 319.583 295.498 321.022 296.259 322.238C296.615 322.636 297.048 322.958 297.531 323.185C298.015 323.412 298.54 323.539 299.074 323.558C299.608 323.577 300.14 323.487 300.639 323.296C301.137 323.104 301.592 322.813 301.976 322.441C302.816 321.174 303.214 319.664 303.106 318.148C303.257 316.789 302.925 315.421 302.168 314.284C301.831 313.878 301.409 313.551 300.933 313.325C300.457 313.099 299.938 312.979 299.411 312.973C298.883 312.932 298.353 313.013 297.862 313.209C297.37 313.405 296.93 313.711 296.575 314.103C295.703 315.269 295.267 316.704 295.343 318.159Z" fill="white"/>
<path d="M311.738 327.944L312.326 309.357L321.896 309.663C323.27 309.654 324.637 309.852 325.952 310.25C326.884 310.563 327.681 311.185 328.212 312.013C328.784 312.919 329.053 313.983 328.98 315.052C328.983 315.954 328.742 316.839 328.283 317.615C327.823 318.391 327.162 319.028 326.37 319.458C325.727 319.787 325.037 320.016 324.325 320.136C324.848 320.308 325.343 320.556 325.794 320.871C326.134 321.165 326.435 321.503 326.686 321.876C326.977 322.228 327.235 322.606 327.455 323.006L330.065 328.486L323.579 328.271L320.687 322.498C320.453 321.949 320.115 321.45 319.693 321.029C319.284 320.734 318.796 320.568 318.291 320.554H317.794L317.546 328.102L311.738 327.944ZM317.851 317.074L320.28 317.154C320.793 317.122 321.302 317.054 321.805 316.95C322.18 316.89 322.518 316.693 322.754 316.397C323.008 316.096 323.148 315.716 323.15 315.323C323.174 315.066 323.139 314.806 323.049 314.564C322.959 314.321 322.816 314.102 322.63 313.922C321.994 313.519 321.246 313.329 320.495 313.38L317.975 313.289L317.851 317.074Z" fill="white"/>
<path d="M320.877 359.535C320.665 359.539 320.455 359.497 320.26 359.414C320.065 359.33 319.89 359.206 319.747 359.049L310.076 348.462L299.636 357.998C299.347 358.263 298.964 358.402 298.572 358.385C298.18 358.369 297.811 358.197 297.546 357.908L287.874 347.321L277.434 356.857C277.291 356.989 277.123 357.091 276.94 357.157C276.757 357.224 276.562 357.253 276.368 357.244C276.173 357.234 275.982 357.186 275.807 357.102C275.631 357.018 275.474 356.9 275.344 356.755L265.661 346.168L255.232 355.704C255.089 355.839 254.921 355.943 254.738 356.012C254.554 356.08 254.358 356.111 254.162 356.102C253.967 356.094 253.774 356.046 253.597 355.962C253.42 355.879 253.261 355.76 253.131 355.614L243.459 345.027L233.03 354.563C232.886 354.695 232.718 354.796 232.535 354.862C232.352 354.929 232.157 354.958 231.963 354.949C231.768 354.94 231.577 354.893 231.401 354.811C231.224 354.728 231.066 354.611 230.934 354.467C230.803 354.323 230.701 354.155 230.635 353.972C230.569 353.788 230.54 353.594 230.548 353.399C230.557 353.205 230.605 353.014 230.687 352.837C230.77 352.661 230.887 352.503 231.031 352.371L242.555 341.841C242.846 341.575 243.231 341.436 243.625 341.453C244.018 341.469 244.389 341.642 244.657 341.931L254.328 352.518L264.757 342.982C265.049 342.719 265.433 342.581 265.826 342.598C266.219 342.615 266.59 342.785 266.858 343.073L276.53 353.659L286.97 344.123C287.113 343.991 287.281 343.889 287.464 343.823C287.648 343.756 287.842 343.727 288.036 343.737C288.231 343.746 288.422 343.794 288.597 343.878C288.773 343.962 288.931 344.08 289.06 344.225L298.732 354.812L309.172 345.276C309.314 345.143 309.482 345.04 309.665 344.973C309.847 344.906 310.041 344.875 310.236 344.884C310.43 344.892 310.621 344.939 310.797 345.022C310.974 345.105 311.132 345.222 311.262 345.366L322.007 357.038C322.2 357.253 322.326 357.521 322.37 357.807C322.414 358.093 322.373 358.386 322.253 358.649C322.134 358.913 321.94 359.136 321.695 359.291C321.451 359.446 321.167 359.527 320.877 359.523V359.535Z" fill="white"/>
<path d="M142.077 406.425L135.004 403.058L128.699 372.359L132.123 368.597L142.077 406.425Z" fill="#EE3F59"/>
<path d="M142.079 406.425L151.468 400.945L143.424 375.658L132.125 368.597L142.079 406.425Z" fill="#EE3F59"/>
<path opacity="0.2" d="M142.079 406.425L151.468 400.945L143.424 375.658L132.125 368.597L142.079 406.425Z" fill="black"/>
<path d="M296.021 412.007H295.241C293.743 411.966 292.322 411.332 291.291 410.244C290.26 409.156 289.704 407.703 289.744 406.205C289.785 404.706 290.419 403.286 291.507 402.255C292.595 401.224 294.048 400.667 295.546 400.708C304.246 400.99 322.663 395.646 333.193 385.432C333.829 384.808 334.603 384.344 335.453 384.076C353.293 378.721 359.926 389.534 360.197 389.997L350.48 395.748C350.514 395.82 350.556 395.888 350.604 395.951C350.503 395.804 347.972 392.562 339.927 394.55C326.719 406.606 306.449 412.007 296.021 412.007Z" fill="#263238"/>
<path d="M295.331 419.52L274.756 418.221L273.141 380.291L300.788 381.319L295.331 419.52Z" fill="#EE3F59"/>
<path d="M295.332 419.52L300.145 414.73L303.128 391.081L300.789 381.319L295.332 419.52Z" fill="#EE3F59"/>
<path opacity="0.2" d="M295.332 419.52L300.145 414.73L303.128 391.081L300.789 381.319L295.332 419.52Z" fill="black"/>
<path d="M414.554 405.148C413.814 405.153 413.094 404.91 412.509 404.459C400.758 395.533 384.884 379.692 378.794 364.405C378.702 364.18 378.638 363.945 378.601 363.704C375.63 346.045 372.794 308.861 372.67 307.29C372.636 306.845 372.691 306.398 372.83 305.974C372.97 305.55 373.192 305.157 373.483 304.819C373.774 304.48 374.129 304.203 374.527 304.002C374.926 303.8 375.36 303.68 375.805 303.646C376.25 303.613 376.698 303.667 377.122 303.807C377.546 303.946 377.938 304.168 378.276 304.459C378.615 304.75 378.892 305.105 379.094 305.504C379.295 305.902 379.415 306.336 379.449 306.782C379.449 307.154 382.353 344.7 385.245 362.224C391.324 377.082 407.842 392.347 416.633 399.069C417.194 399.5 417.607 400.096 417.812 400.773C418.018 401.45 418.007 402.174 417.78 402.844C417.553 403.515 417.122 404.097 416.548 404.51C415.973 404.923 415.284 405.146 414.576 405.148H414.554Z" fill="#263238"/>
<path d="M430.226 406.865C427.605 406.865 424.633 405.679 421.39 403.34C421.029 403.079 420.723 402.749 420.489 402.37C420.255 401.99 420.098 401.568 420.027 401.128C419.884 400.239 420.1 399.33 420.628 398.6C421.155 397.871 421.951 397.38 422.84 397.237C423.729 397.094 424.638 397.31 425.368 397.838C428.17 399.872 429.695 400.098 430.226 400.098C431.125 400.098 431.987 400.455 432.623 401.09C433.258 401.726 433.616 402.588 433.616 403.487C433.616 404.386 433.258 405.248 432.623 405.884C431.987 406.52 431.125 406.877 430.226 406.877V406.865Z" fill="#263238"/>
<path d="M422.338 403.239C425.965 392.46 440.834 394.595 445.964 396.188C450.344 397.468 454.547 399.294 458.471 401.623C461.24 403.431 461.285 406.459 457.59 408.188C453.071 410.323 441.591 408.436 441.591 408.436C447.512 411.023 441.591 415.215 431.185 411.103C427.807 409.769 421.062 407.182 422.338 403.239Z" fill="#EE3F59"/>
<path d="M386.253 311.933C384.908 321.097 377.327 327.842 371.158 326.938C364.989 326.034 364.74 317.899 366.085 308.702C367.43 299.505 369.87 292.884 376.039 293.788C382.208 294.692 387.598 302.804 386.253 311.933Z" fill="#263238"/>
<path d="M237.134 275.394C237.645 275.394 238.06 274.979 238.06 274.467C238.06 273.956 237.645 273.541 237.134 273.541C236.622 273.541 236.207 273.956 236.207 274.467C236.207 274.979 236.622 275.394 237.134 275.394Z" fill="#263238"/>
<path d="M246.548 281.145C246.548 281.328 246.494 281.508 246.392 281.66C246.29 281.812 246.146 281.931 245.976 282.001C245.807 282.071 245.621 282.09 245.441 282.054C245.261 282.018 245.096 281.93 244.967 281.8C244.837 281.671 244.749 281.506 244.713 281.326C244.677 281.146 244.696 280.96 244.766 280.791C244.836 280.621 244.955 280.477 245.107 280.375C245.259 280.273 245.439 280.219 245.622 280.219C245.868 280.219 246.103 280.316 246.277 280.49C246.451 280.664 246.548 280.9 246.548 281.145Z" fill="#263238"/>
<path d="M247.583 390.629C247.583 390.812 247.529 390.991 247.427 391.143C247.326 391.296 247.181 391.414 247.012 391.485C246.842 391.555 246.656 391.573 246.476 391.537C246.296 391.502 246.131 391.413 246.002 391.284C245.872 391.154 245.784 390.989 245.748 390.809C245.713 390.63 245.731 390.443 245.801 390.274C245.871 390.105 245.99 389.96 246.142 389.858C246.295 389.756 246.474 389.702 246.657 389.702C246.903 389.702 247.138 389.8 247.312 389.974C247.486 390.147 247.583 390.383 247.583 390.629Z" fill="#263238"/>
<path d="M256.068 397.296C256.068 397.479 256.013 397.658 255.912 397.81C255.81 397.963 255.665 398.081 255.496 398.152C255.327 398.222 255.14 398.24 254.961 398.204C254.781 398.169 254.616 398.08 254.486 397.951C254.357 397.821 254.268 397.656 254.233 397.476C254.197 397.297 254.215 397.11 254.285 396.941C254.355 396.772 254.474 396.627 254.627 396.525C254.779 396.423 254.958 396.369 255.141 396.369C255.387 396.369 255.623 396.467 255.796 396.641C255.97 396.814 256.068 397.05 256.068 397.296Z" fill="#263238"/>
<path d="M93.2264 408.413C91.5958 408.328 90.0053 407.877 88.5719 407.095C87.1386 406.313 85.899 405.219 84.9445 403.894C84.8599 403.77 84.8267 403.619 84.852 403.471C84.8773 403.323 84.9592 403.191 85.0801 403.103C85.1415 403.06 85.2108 403.03 85.284 403.014C85.3571 402.998 85.4327 402.997 85.5063 403.011C85.5799 403.025 85.65 403.053 85.7126 403.094C85.7752 403.135 85.8291 403.188 85.871 403.25C87.9839 406.289 92.6502 407.916 94.684 406.956C94.8877 406.869 95.0692 406.738 95.215 406.572C94.1874 406.119 93.2869 405.421 92.5933 404.538C91.8996 403.655 91.4341 402.615 91.2379 401.51C90.978 400.075 90.7746 398.12 91.9497 397.872C93.5767 397.51 95.7008 401.431 96.4691 404.402C96.6093 404.894 96.6591 405.407 96.616 405.916C97.2688 406.105 97.953 406.159 98.6272 406.075C98.9309 406.051 99.2264 405.965 99.4949 405.821C99.7634 405.677 99.9989 405.479 100.186 405.238C99.4438 404.676 98.8278 403.964 98.3781 403.149C97.9285 402.333 97.6553 401.432 97.5764 400.504C97.1471 397.408 97.4747 396.877 97.8137 396.606C97.9235 396.522 98.0539 396.47 98.1911 396.454C98.3283 396.438 98.4672 396.459 98.5933 396.516C99.8022 397.036 101.26 401.419 101.542 403.894C101.576 404.156 101.576 404.422 101.542 404.685C102.029 404.872 102.546 404.971 103.068 404.979C104.025 405.01 104.971 404.763 105.791 404.267C105.633 404.164 105.482 404.051 105.339 403.928C104.209 402.934 103.689 401.329 103.892 399.035C104.051 397.273 104.446 396.301 105.158 395.996C105.387 395.904 105.639 395.881 105.882 395.929C106.124 395.977 106.348 396.094 106.525 396.267C107.288 397.109 107.858 398.108 108.195 399.193C108.533 400.278 108.63 401.423 108.48 402.549C108.382 403.018 108.185 403.461 107.903 403.849C110.439 404.025 112.985 403.738 115.417 403.001C115.488 402.983 115.562 402.979 115.635 402.989C115.708 403 115.778 403.024 115.841 403.062C115.904 403.1 115.959 403.15 116.003 403.21C116.046 403.269 116.078 403.336 116.095 403.408C116.13 403.553 116.107 403.706 116.031 403.835C115.955 403.963 115.832 404.057 115.688 404.097C112.626 404.854 109.327 405.464 106.999 404.798C105.861 405.657 104.471 406.117 103.045 406.108C102.412 406.1 101.785 405.982 101.192 405.758C100.929 406.165 100.576 406.505 100.161 406.754C99.7459 407.003 99.2791 407.153 98.7967 407.193C97.9474 407.302 97.0845 407.229 96.2658 406.978C95.9988 407.42 95.605 407.77 95.1359 407.984C94.5366 408.26 93.886 408.406 93.2264 408.413ZM92.2548 399.058C92.1059 399.808 92.1368 400.582 92.3451 401.318C92.5046 402.223 92.8794 403.076 93.4379 403.805C93.9964 404.535 94.7221 405.119 95.554 405.51C95.5373 405.238 95.4918 404.969 95.4184 404.707C94.5371 401.521 92.8423 399.295 92.2548 399.058ZM98.5481 398.075C98.5562 398.855 98.6204 399.632 98.7402 400.403C98.8667 401.78 99.4748 403.068 100.458 404.041C100.18 401.955 99.533 399.935 98.5481 398.075ZM105.655 397.092C105.655 397.092 105.226 397.307 105.067 399.194C104.909 401.081 105.237 402.38 106.118 403.126C106.324 403.298 106.552 403.443 106.796 403.555C107.097 403.24 107.308 402.85 107.406 402.425C107.607 400.647 107.127 398.858 106.062 397.42C105.824 397.137 105.689 397.092 105.655 397.092Z" fill="#263238"/>
<path d="M258.597 416.943L261.659 411.633L258.597 406.334H255.32L257.173 411.633L255.32 416.943H258.597Z" fill="#263238"/>
<path d="M255.529 414.413C255.151 414.437 254.772 414.383 254.416 414.255C254.06 414.128 253.734 413.928 253.458 413.669C253.182 413.41 252.962 413.098 252.812 412.75C252.661 412.403 252.584 412.029 252.584 411.65C252.584 411.272 252.661 410.897 252.812 410.55C252.962 410.203 253.182 409.89 253.458 409.631C253.734 409.372 254.06 409.173 254.416 409.045C254.772 408.917 255.151 408.864 255.529 408.888L250.331 407.837L248.941 412.04L251.269 415.588L255.529 414.413Z" fill="#263238"/>
<path d="M255.982 406.334H249.847L246.785 411.644L249.847 416.955H255.982L259.044 411.644L255.982 406.334ZM252.92 414.413C252.372 414.415 251.836 414.254 251.379 413.952C250.923 413.649 250.566 413.217 250.355 412.712C250.144 412.206 250.087 411.649 250.193 411.111C250.298 410.574 250.561 410.079 250.948 409.691C251.334 409.303 251.828 409.038 252.365 408.93C252.902 408.822 253.459 408.877 253.966 409.086C254.472 409.295 254.905 409.65 255.21 410.105C255.515 410.561 255.677 411.096 255.677 411.644C255.677 412.377 255.387 413.079 254.87 413.598C254.354 414.117 253.653 414.41 252.92 414.413Z" fill="#EE3F59"/>
<path d="M472.166 405.972L469.895 402.029L472.166 398.086H474.595L473.228 402.029L474.595 405.972H472.166Z" fill="#EE3F59"/>
<path d="M474.43 404.086C474.712 404.107 474.995 404.07 475.262 403.976C475.529 403.882 475.774 403.735 475.981 403.542C476.188 403.35 476.354 403.117 476.467 402.857C476.58 402.598 476.638 402.318 476.638 402.035C476.638 401.753 476.58 401.473 476.467 401.213C476.354 400.954 476.188 400.721 475.981 400.528C475.774 400.336 475.529 400.188 475.262 400.095C474.995 400.001 474.712 399.964 474.43 399.985L478.294 399.205L479.322 402.335L477.605 404.967L474.43 404.086Z" fill="#EE3F59"/>
<path d="M474.103 398.086H478.623L480.883 402.029L478.623 405.972H474.103L471.844 402.029L474.103 398.086ZM476.363 404.086C476.77 404.088 477.169 403.969 477.509 403.744C477.848 403.52 478.114 403.2 478.271 402.824C478.428 402.448 478.471 402.035 478.393 401.635C478.315 401.235 478.12 400.868 477.833 400.579C477.545 400.29 477.179 400.093 476.78 400.013C476.381 399.933 475.967 399.973 475.59 400.128C475.214 400.284 474.892 400.547 474.666 400.886C474.439 401.224 474.318 401.622 474.318 402.029C474.318 402.575 474.535 403.098 474.92 403.483C475.306 403.869 475.829 404.086 476.375 404.086H476.363Z" fill="#263238"/>
<path d="M387.543 411.272H392.65C393.288 411.266 393.899 411.009 394.349 410.557C394.799 410.104 395.054 409.493 395.057 408.854C395.057 408.215 394.803 407.602 394.352 407.149C393.901 406.696 393.289 406.44 392.65 406.437H387.543C386.902 406.437 386.287 406.691 385.833 407.145C385.38 407.598 385.125 408.213 385.125 408.854C385.128 409.495 385.384 410.108 385.836 410.561C386.289 411.014 386.903 411.269 387.543 411.272Z" fill="#263238"/>
<path d="M379.331 406.651C379.806 405.793 380.521 405.092 381.388 404.635C382.256 404.178 383.238 403.985 384.214 404.079C385.189 404.173 386.117 404.55 386.881 405.164C387.645 405.778 388.213 406.603 388.515 407.535C388.817 408.468 388.839 409.469 388.58 410.414C388.32 411.36 387.79 412.209 387.054 412.857C386.319 413.505 385.409 413.924 384.439 414.061C383.468 414.199 382.478 414.051 381.591 413.633C380.367 413.005 379.442 411.918 379.018 410.609C378.595 409.3 378.707 407.877 379.331 406.651Z" fill="#EE3F59"/>
<path d="M380.717 413.625L382.117 414.285L386.983 403.963L385.583 403.303L380.717 413.625Z" fill="#263238"/>
</svg>
